<?xml version="1.0" standalone="no"?>
<!DOCTYPE svg PUBLIC "-//W3C//DTD SVG 1.1//EN" "http://www.w3.org/Graphics/SVG/1.1/DTD/svg11.dtd" >
<svg xmlns="http://www.w3.org/2000/svg">
<metadata></metadata>
<defs>
<font id="matchbookmatchbook" horiz-adv-x="481" >
<font-face units-per-em="2048" ascent="1536" descent="-512" />
<missing-glyph horiz-adv-x="348" />
<glyph horiz-adv-x="2048" />
<glyph horiz-adv-x="2048" />
<glyph unicode="&#xd;" horiz-adv-x="1024" />
<glyph unicode=" "  horiz-adv-x="348" />
<glyph unicode="&#x09;" horiz-adv-x="348" />
<glyph unicode="&#xa0;" horiz-adv-x="348" />
<glyph unicode="!" horiz-adv-x="268" d="M102 31v106q0 12 9.5 21.5t23.5 9.5q12 0 21.5 -9t9.5 -22v-106q0 -12 -9.5 -21.5t-21.5 -9.5q-14 0 -23.5 9t-9.5 22zM102 266v1239q0 12 9.5 21.5t23.5 9.5q12 0 21.5 -9t9.5 -22v-1239q0 -14 -9.5 -22t-21.5 -8q-33 0 -33 30z" />
<glyph unicode="&#x22;" horiz-adv-x="378" d="M102 1421v84q0 12 8.5 21.5t22.5 9.5q12 0 21.5 -9t9.5 -22v-84q0 -14 -9.5 -23t-21.5 -9q-31 0 -31 32zM209 1421v84q0 12 9.5 21.5t21.5 9.5q14 0 22 -9t8 -22v-84q0 -33 -30 -32q-12 0 -21.5 9t-9.5 23z" />
<glyph unicode="#" horiz-adv-x="432" d="M82 702q0 12 9 21.5t24 9.5h10v70h-10q-33 0 -33 31q0 12 9 21t24 9h10v10q0 31 31 31q12 0 21 -8t9 -23v-10h70v10q0 14 9 22.5t22 8.5q12 0 21 -8t9 -23v-10h11q14 0 22 -9t8 -21q0 -31 -30 -31h-11v-70h11q14 0 22 -9t8 -22q0 -33 -30 -32h-11v-11q0 -12 -9 -21 t-21 -9t-21.5 9t-9.5 21v11h-70v-11q0 -12 -9 -21t-21 -9q-14 0 -22.5 9t-8.5 21v11h-10q-33 0 -33 32zM186 733h70v70h-70v-70z" />
<glyph unicode="$" horiz-adv-x="491" d="M104 223q0 12 9.5 21.5t23.5 9.5q12 0 21.5 -9t9.5 -22q0 -33 21.5 -54.5t54.5 -21.5q31 0 52 21.5t23 50.5l-213 1092q-2 2 -2 6q0 49 31 86t78 47v57q0 12 9 21.5t22 9.5q12 0 21 -9t9 -22v-57q47 -10 78 -47t31 -86q0 -33 -33 -33q-12 0 -21.5 9.5t-9.5 23.5 q0 31 -22.5 53.5t-52.5 22.5q-31 0 -52.5 -21.5t-23.5 -52.5l213 -1090q0 -2 1 -3t1 -3q0 -49 -30.5 -87t-78.5 -48v-55q0 -12 -9 -21.5t-21 -9.5t-21.5 9t-9.5 22v55q-47 10 -78 48t-31 87z" />
<glyph unicode="%" horiz-adv-x="491" d="M102 1389q0 35 26 59.5t60 24.5q35 0 59.5 -25t24.5 -59q0 -35 -24.5 -60.5t-59.5 -25.5t-60.5 25.5t-25.5 60.5zM104 35l215 1474q2 12 11.5 20.5t23.5 6.5q12 -4 20.5 -13.5t6.5 -23.5l-215 -1472q-4 -27 -31 -27h-4q-14 2 -21.5 12.5t-5.5 22.5zM166 1389 q0 -25 22 -25q23 0 23 25q0 22 -23 22t-22 -22zM211 113q0 35 25.5 60.5t60.5 25.5t59.5 -26t24.5 -60q0 -35 -24.5 -59.5t-59.5 -24.5t-60.5 24.5t-25.5 59.5zM272 113q0 -23 25 -23q23 0 22 23q1 22 -22 22q-25 0 -25 -22z" />
<glyph unicode="&#x26;" horiz-adv-x="555" d="M102 139v744q0 33 14.5 60.5t37.5 45.5q-23 20 -37.5 47t-14.5 62v301q0 57 41 97t99 40q57 0 97 -40t40 -97q0 -33 -31 -33q-12 0 -21.5 9t-9.5 24q0 31 -22.5 53.5t-52.5 22.5q-33 0 -54.5 -22.5t-21.5 -53.5v-301q0 -33 21.5 -55.5t54.5 -22.5h75v90q0 14 9.5 22.5 t21.5 8.5q31 0 31 -31v-90h59q12 0 21.5 -8t9.5 -23q0 -12 -9 -21.5t-22 -9.5h-59v-927q0 -12 -8.5 -21.5t-22.5 -9.5h-106q-57 0 -98.5 40t-41.5 99zM166 139q0 -33 21.5 -54.5t54.5 -21.5h75v895h-75q-33 0 -54.5 -22.5t-21.5 -52.5v-744z" />
<glyph unicode="'" horiz-adv-x="266" d="M102 1421v84q0 12 9.5 21.5t21.5 9.5q14 0 22.5 -9t8.5 -22v-84q0 -33 -31 -32q-12 0 -21.5 9t-9.5 23z" />
<glyph unicode="(" horiz-adv-x="368" d="M102 137v1260q0 57 40 98t98 41q14 0 23 -9t9 -22q0 -33 -32 -32q-31 0 -53.5 -21.5t-22.5 -54.5v-1260q0 -31 22.5 -53.5t53.5 -22.5q14 0 23 -9t9 -21t-9 -21.5t-23 -9.5q-57 0 -97.5 40t-40.5 97z" />
<glyph unicode=")" horiz-adv-x="389" d="M100 31q0 12 9.5 21t21.5 9q33 0 54.5 22.5t21.5 53.5v1260q0 33 -21.5 54.5t-54.5 21.5q-12 0 -21.5 9t-9.5 23q0 12 9.5 21.5t21.5 9.5q59 0 99 -41t40 -98v-1260q0 -57 -40 -97t-99 -40q-12 0 -21.5 9t-9.5 22z" />
<glyph unicode="*" horiz-adv-x="460" d="M107.5 1443.5q-3.5 12.5 3.5 22.5q6 10 19 14.5t24 -1.5l45 -27v53q0 12 9 21.5t21 9.5q14 0 23.5 -9t9.5 -22v-53l45 27q10 6 23.5 2t19.5 -15q14 -27 -12 -43l-45 -26l45 -27q10 -6 14 -18.5t-2 -22.5q-10 -16 -26 -16q-8 0 -17 4l-45 26v-53q0 -12 -9 -21t-24 -9 q-12 0 -21 9t-9 21v53l-45 -26q-12 -4 -17 -4q-16 0 -26 16q-6 10 -3 22.5t15 18.5l45 27l-45 28q-12 6 -15.5 18.5z" />
<glyph unicode="+" horiz-adv-x="485" d="M102 543q0 12 9.5 21t23.5 9h76v76q0 14 9 22.5t22 8.5q12 0 21 -8t9 -23v-76h76q14 0 23.5 -9t9.5 -21q0 -31 -33 -31h-76v-78q0 -12 -9 -21.5t-21 -9.5t-21.5 9.5t-9.5 21.5v78h-76q-33 0 -33 31z" />
<glyph unicode="," horiz-adv-x="276" d="M92 51l62 86q8 10 21 12.5t24 -6.5q10 -8 12 -21t-6 -24l-64 -84q-6 -8 -20 -12q-12 -4 -23 6q-25 18 -6 43z" />
<glyph unicode="-" horiz-adv-x="485" d="M102 522q0 12 9.5 21.5t23.5 9.5h213q14 0 23.5 -9t9.5 -22q0 -30 -33 -30h-213q-33 0 -33 30z" />
<glyph unicode="." horiz-adv-x="276" d="M102 31v106q0 12 9.5 21.5t21.5 9.5q14 0 23.5 -9t9.5 -22v-106q0 -12 -9.5 -21.5t-23.5 -9.5q-12 0 -21.5 9t-9.5 22z" />
<glyph unicode="/" d="M104 35l215 1474q2 12 12.5 20.5t22.5 6.5q12 -4 20.5 -13.5t6.5 -23.5l-215 -1472q-4 -27 -31 -27h-4q-12 2 -20.5 12.5t-6.5 22.5z" />
<glyph unicode="0" horiz-adv-x="483" d="M102 139v1258q0 59 40 99t100 40q57 0 97 -40t40 -99v-1258q0 -59 -40 -99t-97 -40q-59 0 -99.5 40t-40.5 99zM164 139q0 -33 22.5 -55.5t55.5 -22.5q31 0 53 22.5t22 55.5v1258q0 33 -22 55.5t-53 22.5q-33 0 -55.5 -22.5t-22.5 -55.5v-1258z" />
<glyph unicode="1" horiz-adv-x="382" d="M102.5 1395.5q-0.5 11.5 10.5 21.5l108 109q12 12 33 6q18 -6 18 -29v-1474q0 -12 -8 -21.5t-22 -9.5q-12 0 -21.5 9t-9.5 22v1398l-53 -53q-10 -10 -22.5 -10t-22.5 10t-10.5 21.5z" />
<glyph unicode="2" horiz-adv-x="485" d="M104 37l215 1364q-2 31 -23.5 52.5t-51.5 21.5q-33 0 -54.5 -22.5t-21.5 -55.5q0 -12 -9 -21.5t-24 -9.5q-12 0 -21.5 9t-9.5 22q0 59 40 99t100 40q57 0 97 -40t40 -99v-4l-209 -1332h72q31 0 53 22.5t22 55.5q0 12 9.5 21.5t21.5 9.5t21.5 -9t9.5 -22q0 -59 -40 -99 t-97 -40h-109q-12 0 -22 10q-8 10 -9 27z" />
<glyph unicode="3" horiz-adv-x="485" d="M104 139q0 12 9.5 21.5t21.5 9.5q14 0 22.5 -9t8.5 -22q0 -33 22.5 -55.5t53.5 -22.5q33 0 55 22.5t22 55.5v682q0 33 -22.5 54.5t-54.5 21.5q-12 0 -21.5 9t-9.5 24q0 12 9 21.5t22 9.5q33 0 55 22.5t22 52.5v361q0 33 -22.5 55.5t-54.5 22.5q-31 0 -53.5 -22.5 t-22.5 -55.5q0 -12 -8 -21.5t-23 -9.5q-12 0 -21.5 9t-9.5 22q0 59 40 99t98 40q59 0 99 -40t40 -99v-361q0 -33 -14.5 -60.5t-36.5 -45.5q23 -20 37 -48t14 -61v-682q0 -59 -40 -99t-99 -40q-57 0 -97.5 40t-40.5 99z" />
<glyph unicode="4" horiz-adv-x="487" d="M104 778l215 738q8 27 35 22q27 -4 27 -31v-1474q0 -12 -9.5 -21.5t-23.5 -9.5q-12 0 -21.5 9t-9.5 22v706h-182q-18 0 -26 13q-8 14 -5 26zM176 801h141v487z" />
<glyph unicode="5" horiz-adv-x="487" d="M102 139q0 12 9.5 21.5t23.5 9.5q12 0 21.5 -9t9.5 -22q0 -33 22.5 -55.5t53.5 -22.5q33 0 54 22.5t21 55.5v523q0 31 -22.5 53t-52.5 22h-107q-14 0 -23.5 9.5t-9.5 21.5v737q0 12 9.5 21.5t23.5 9.5h213q14 0 23.5 -9t9.5 -22q0 -31 -33 -30h-182v-676h76q57 0 98 -40 t41 -97v-523q0 -59 -41 -99t-98 -40t-98.5 40t-41.5 99z" />
<glyph unicode="6" horiz-adv-x="485" d="M102 139v1258q0 59 40 99t98 40q57 0 98 -40t41 -99q0 -12 -9.5 -21.5t-21.5 -9.5q-14 0 -23.5 9t-9.5 22q0 33 -21.5 55.5t-53.5 22.5q-31 0 -53.5 -22.5t-22.5 -55.5v-621q35 23 76 23q57 0 98 -40t41 -97v-523q0 -59 -41 -99t-98 -40t-97.5 40t-40.5 99zM164 139 q0 -33 22.5 -55.5t53.5 -22.5q33 0 54 22.5t21 55.5v523q0 31 -21.5 53t-53.5 22q-31 0 -53.5 -22t-22.5 -53v-523z" />
<glyph unicode="7" horiz-adv-x="485" d="M104 35l209 1440h-178q-12 0 -21.5 8t-9.5 22q0 12 9.5 21.5t21.5 9.5h215q12 0 23 -10q10 -14 8 -25l-215 -1474q-4 -27 -31 -27h-4q-12 2 -20.5 12.5t-6.5 22.5z" />
<glyph unicode="8" horiz-adv-x="487" d="M102 139v523q0 33 14.5 60.5t37.5 45.5q-23 18 -37.5 46t-14.5 60v523q0 59 40 99t98 40q59 0 99 -40t40 -99v-523q0 -33 -14.5 -60.5t-36.5 -45.5q23 -18 37 -46t14 -60v-523q0 -59 -40 -99t-99 -40q-57 0 -97.5 40t-40.5 99zM164 139q0 -33 22.5 -55.5t53.5 -22.5 q33 0 55 22.5t22 55.5v523q0 31 -22.5 53t-54.5 22q-31 0 -53.5 -22.5t-22.5 -52.5v-523zM164 874q0 -31 22.5 -53t53.5 -22q33 0 55 22.5t22 52.5v523q0 33 -22.5 55.5t-54.5 22.5q-31 0 -53.5 -22.5t-22.5 -55.5v-523z" />
<glyph unicode="9" horiz-adv-x="487" d="M102 139q0 12 9.5 21.5t23.5 9.5q12 0 21.5 -9t9.5 -22q0 -33 21.5 -55.5t54.5 -22.5q31 0 53 22.5t22 55.5v621q-35 -23 -75 -23q-57 0 -98.5 40t-41.5 97v523q0 59 41 99t99 40q57 0 98 -40t41 -99v-1258q0 -59 -41 -99t-98 -40t-98.5 40t-41.5 99zM166 874 q0 -31 21.5 -53t54.5 -22q31 0 53 22.5t22 52.5v523q0 33 -22 55.5t-53 22.5q-33 0 -54.5 -22.5t-21.5 -55.5v-523z" />
<glyph unicode=":" horiz-adv-x="266" d="M102 373v106q0 12 9.5 21.5t21.5 9.5q14 0 22.5 -9t8.5 -22v-106q0 -12 -8.5 -21.5t-22.5 -9.5q-12 0 -21.5 9t-9.5 22zM102 647v107q0 12 9.5 21t21.5 9q14 0 22.5 -9t8.5 -21v-107q0 -12 -8.5 -21.5t-22.5 -9.5q-12 0 -21.5 9.5t-9.5 21.5z" />
<glyph unicode=";" horiz-adv-x="378" d="M104.5 33.5q-0.5 11.5 10.5 21.5l73 76q10 10 22.5 10t22.5 -10q23 -23 0 -45l-75 -74q-8 -10 -20.5 -10t-22.5 10t-10.5 21.5zM178 293v106q0 12 9.5 21.5t21.5 9.5q14 0 22.5 -9t8.5 -22v-106q0 -12 -8.5 -21.5t-22.5 -9.5q-12 0 -21.5 9.5t-9.5 21.5z" />
<glyph unicode="&#x3c;" d="M104 752q-4 8 0 18l218 743q4 12 15 19.5t23 3.5q29 -10 23 -41l-215 -735l215 -719q4 -12 -3 -23.5t-20 -15.5q-2 -2 -8 -2q-25 0 -30 23z" />
<glyph unicode="=" horiz-adv-x="485" d="M102 475q0 12 9.5 21.5t21.5 9.5h215q12 0 21.5 -9.5t9.5 -21.5q0 -14 -9.5 -23.5t-21.5 -9.5h-215q-12 0 -21.5 9.5t-9.5 23.5zM102 582q0 12 9.5 21t21.5 9h215q12 0 21.5 -9t9.5 -21t-9.5 -21.5t-21.5 -9.5h-215q-12 0 -21.5 9t-9.5 22z" />
<glyph unicode="&#x3e;" d="M106 39l216 719l-216 735q-6 31 23 41q29 6 39 -23l215 -743q2 -10 0 -18l-215 -730q-4 -10 -12.5 -16t-18.5 -6q-6 0 -10 2q-12 4 -18.5 15.5t-2.5 23.5z" />
<glyph unicode="?" horiz-adv-x="483" d="M102 1397q0 57 40 98t100 41q57 0 97 -41t40 -98v-4l-107 -629v-498q0 -14 -9 -22t-21 -8q-31 0 -31 30v502v4l106 627q-2 31 -23.5 52.5t-51.5 21.5q-33 0 -54.5 -21.5t-21.5 -54.5q0 -12 -9.5 -21.5t-23.5 -9.5q-12 0 -21.5 9t-9.5 22zM211 31v106q0 12 8.5 21.5 t22.5 9.5q12 0 21 -9t9 -22v-106q0 -12 -9 -21.5t-21 -9.5q-14 0 -22.5 9t-8.5 22z" />
<glyph unicode="@" horiz-adv-x="724" d="M102 137v897q0 57 40 98.5t100 41.5h123q59 0 99 -41t40 -99v-794q0 -59 -40 -99.5t-99 -40.5q-57 0 -97.5 40t-40.5 100v497v25q0 57 40 98t98 41q23 0 42 -7t35 -17v157q0 33 -22.5 54.5t-54.5 21.5h-123q-33 0 -55.5 -21.5t-22.5 -54.5v-897q0 -31 22.5 -53.5 t55.5 -22.5h252q25 0 45 17q20 23 20 69v543q0 14 9.5 23.5t21.5 9.5q33 0 33 -33v-543q0 -72 -41 -112q-35 -35 -88 -35h-252q-59 0 -99.5 40t-40.5 97zM289 240q0 -33 22.5 -55.5t53.5 -22.5q33 0 55 22.5t22 55.5v522q0 31 -22.5 53.5t-54.5 22.5q-31 0 -53.5 -22.5 t-22.5 -53.5v-158v-364z" />
<glyph unicode="A" horiz-adv-x="491" d="M102 29v1366q0 57 41 98t99 41q57 0 98 -41t41 -98v-142v-1224q0 -31 -33 -31q-12 0 -21.5 8t-9.5 23v704h-151v-704q0 -14 -9.5 -22.5t-21.5 -8.5q-33 0 -33 31zM166 797h151v55v543q0 33 -21.5 54t-53.5 21q-31 0 -53.5 -21.5t-22.5 -53.5v-598z" />
<glyph unicode="B" horiz-adv-x="483" d="M102 139v1260q0 57 40.5 97t97.5 40q59 0 99 -40t40 -97v-178v-226v-121q0 -33 -14.5 -60.5t-36.5 -45.5q41 -33 49 -84q2 -4 2 -10v-12v-345v-178q0 -59 -40 -99t-99 -40q-57 0 -97.5 40t-40.5 99zM164 139q0 -33 22.5 -55.5t53.5 -22.5q33 0 55 22.5t22 55.5v178v345 q0 31 -22.5 53t-54.5 22h-76v-598zM164 799h76q33 0 55 22.5t22 52.5v121v226v178q0 31 -22.5 53.5t-54.5 22.5q-31 0 -53.5 -22.5t-22.5 -53.5v-600z" />
<glyph unicode="C" horiz-adv-x="489" d="M102 139v1260q0 57 40 97t100 40q57 0 97 -40t40 -97q0 -33 -31 -33q-12 0 -21.5 9t-9.5 24q0 31 -22.5 53.5t-52.5 22.5q-33 0 -54.5 -22.5t-21.5 -53.5v-1260q0 -33 21.5 -55.5t54.5 -22.5q31 0 53 22.5t22 55.5q0 12 9.5 21.5t21.5 9.5q14 0 22.5 -9t8.5 -22 q0 -59 -40 -99t-97 -40q-59 0 -99.5 40t-40.5 99z" />
<glyph unicode="D" horiz-adv-x="491" d="M104 31v1474q0 12 9.5 21.5t21.5 9.5h107q59 0 99 -40t40 -97v-1260q0 -59 -40 -99t-99 -40h-107q-12 0 -21.5 9t-9.5 22zM166 61h76q33 0 55 22.5t22 55.5v1260q0 31 -22.5 53.5t-54.5 22.5h-76v-1414z" />
<glyph unicode="E" horiz-adv-x="491" d="M102 139v1260q0 57 40 97t98 40q59 0 99 -40t40 -97q0 -14 -9.5 -23.5t-21.5 -9.5q-33 0 -33 33q0 31 -21.5 53.5t-53.5 22.5q-31 0 -53.5 -22.5t-22.5 -53.5v-600h184q12 0 21.5 -9.5t9.5 -21.5t-9.5 -21.5t-21.5 -9.5h-184v-598q0 -33 22.5 -55.5t53.5 -22.5 q33 0 54 22.5t21 55.5q0 12 9.5 21.5t23.5 9.5q12 0 21.5 -9t9.5 -22q0 -59 -40 -99t-99 -40q-57 0 -97.5 40t-40.5 99z" />
<glyph unicode="F" horiz-adv-x="452" d="M102 31v1474q0 12 9.5 21.5t21.5 9.5h217q12 0 21.5 -9t9.5 -22q0 -14 -9.5 -23t-21.5 -9h-186v-668h186q12 0 21.5 -9.5t9.5 -23.5q0 -12 -9.5 -21.5t-21.5 -9.5h-186v-710q0 -12 -8.5 -21.5t-22.5 -9.5q-12 0 -21.5 9t-9.5 22z" />
<glyph unicode="G" d="M102 139v1260q0 57 41 97t99 40q57 0 97 -40t40 -97q0 -33 -31 -33q-12 0 -21.5 9t-9.5 24q0 31 -22.5 53.5t-52.5 22.5q-33 0 -54.5 -22.5t-21.5 -53.5v-1260q0 -33 21.5 -55.5t54.5 -22.5q31 0 53 22.5t22 55.5v398h-75q-12 0 -21.5 9t-9.5 21q0 14 9 22.5t22 8.5h106 q31 0 31 -31v-428q0 -59 -40 -99t-97 -40t-98.5 40t-41.5 99z" />
<glyph unicode="H" d="M102 31v1474q0 12 8.5 21.5t22.5 9.5q12 0 21.5 -9t9.5 -22v-706h151v706q0 12 9.5 21.5t21.5 9.5q14 0 23.5 -9t9.5 -22v-1474q0 -12 -9.5 -21.5t-23.5 -9.5q-12 0 -21.5 9t-9.5 22v706h-151v-706q0 -12 -9.5 -21.5t-21.5 -9.5q-14 0 -22.5 9t-8.5 22z" />
<glyph unicode="I" horiz-adv-x="266" d="M102 31v1474q0 12 9.5 21.5t21.5 9.5q14 0 23.5 -9t9.5 -22v-1474q0 -12 -9.5 -21.5t-23.5 -9.5q-12 0 -21.5 9t-9.5 22z" />
<glyph unicode="J" horiz-adv-x="491" d="M102 139q0 12 9.5 21.5t21.5 9.5q14 0 23.5 -9t9.5 -22q0 -33 21.5 -55.5t54.5 -22.5q31 0 53 22.5t22 55.5v1366q0 12 9.5 21.5t21.5 9.5q14 0 22.5 -9t8.5 -22v-1366q0 -59 -40 -99t-97 -40t-98.5 40t-41.5 99z" />
<glyph unicode="K" horiz-adv-x="485" d="M102 29v1474q0 12 9.5 21.5t23.5 9.5q12 0 21.5 -9t9.5 -22v-526l153 534q4 12 14.5 18.5t22.5 2.5q14 -4 20 -14q4 -6 5 -14q0 -4 -2 -9l-172 -596l172 -864q1 -4 1 -8q0 -9 -5 -15q-8 -10 -21 -14h-6q-25 0 -31 25l-147 745l-4 -16v-723q0 -12 -9.5 -21.5t-21.5 -9.5 q-14 0 -23.5 9t-9.5 22z" />
<glyph unicode="L" horiz-adv-x="430" d="M102 139v1366q0 12 9.5 21.5t21.5 9.5t21.5 -9t9.5 -22v-1366q0 -33 22.5 -55.5t53.5 -22.5h108q12 0 21.5 -8t9.5 -22q0 -12 -9.5 -21.5t-21.5 -9.5h-108q-57 0 -97.5 40t-40.5 99z" />
<glyph unicode="M" horiz-adv-x="696" d="M102 31v1368q0 57 41 97t99 40q33 0 60.5 -14.5t45.5 -36.5q20 23 48 37t61 14q57 0 97 -40t40 -97v-1368q0 -12 -9.5 -21.5t-21.5 -9.5t-21.5 9t-9.5 22v1351v17q0 31 -22.5 53.5t-52.5 22.5q-33 0 -55.5 -22.5t-22.5 -53.5v-1368q0 -12 -8.5 -21.5t-22.5 -9.5 q-12 0 -21.5 9t-9.5 22v823v545q0 31 -22.5 53.5t-52.5 22.5q-33 0 -54.5 -22.5t-21.5 -53.5v-1368q0 -12 -9.5 -21.5t-21.5 -9.5q-14 0 -23.5 9t-9.5 22z" />
<glyph unicode="N" horiz-adv-x="483" d="M102 31v1472q0 25 27 33q3 1 7 1q21 0 28 -24l153 -528v518q0 14 9.5 23.5t21.5 9.5q33 0 33 -33v-1472q0 -31 -33 -31q-12 0 -21.5 8t-9.5 23v731l-151 524v-1255q0 -14 -9.5 -22.5t-21.5 -8.5q-33 0 -33 31z" />
<glyph unicode="O" horiz-adv-x="487" d="M102 137v1260q0 57 41 97t99 40q57 0 98 -40t41 -97v-1260q0 -59 -41 -99t-98 -40t-98.5 40t-41.5 99zM166 137q0 -33 21.5 -55.5t54.5 -22.5q31 0 53 22.5t22 55.5v1260q0 31 -22 53.5t-53 22.5q-33 0 -54.5 -23t-21.5 -53v-1260z" />
<glyph unicode="P" horiz-adv-x="485" d="M102 33v844v290v234q0 57 41.5 97t98.5 40t98 -40t41 -97v-217v-307v-21q0 -10 -6 -16q-12 -43 -49 -72t-84 -29q-43 0 -76 23v-729q0 -12 -9.5 -21.5t-21.5 -9.5q-14 0 -23.5 9t-9.5 22zM166 877q0 -31 21.5 -53.5t54.5 -22.5q31 0 53 22.5t22 53.5v307v217 q0 31 -22.5 53.5t-52.5 22.5q-33 0 -54.5 -22.5t-21.5 -53.5v-234v-290z" />
<glyph unicode="Q" horiz-adv-x="489" d="M102 139v1260q0 57 41 97t99 40q57 0 98 -40t41 -97v-1260q0 -41 -23 -73l13 -13q10 -10 10 -22.5t-10 -20.5q-10 -10 -23 -10q-10 0 -20 10l-13 10q-37 -20 -73 -20q-57 0 -98.5 40t-41.5 99zM166 139q0 -33 22.5 -55.5t53.5 -22.5q14 0 26 7l-49 49q-10 10 -10 21.5 t10 21.5t22.5 10t22.5 -10l49 -47q4 16 4 26v1260q0 31 -21.5 53.5t-53.5 22.5q-31 0 -53.5 -22.5t-22.5 -53.5v-1260z" />
<glyph unicode="R" d="M102 31v1368q0 57 40.5 97t99.5 40q57 0 97 -40t40 -97v-144v-401q0 -41 -21.5 -75t-56.5 -50q-4 -2 -14 -2l92 -692q2 -12 -6 -22.5t-21 -12.5h-4q-27 0 -31 27l-92 700h-61v-696q0 -12 -8.5 -21.5t-22.5 -9.5q-12 0 -21.5 9t-9.5 22zM164 788h115q39 23 38 66v401v144 q0 31 -22.5 53.5t-52.5 22.5q-33 0 -55.5 -22.5t-22.5 -53.5v-611z" />
<glyph unicode="S" horiz-adv-x="483" d="M102 139q0 12 9.5 21.5t21.5 9.5t21.5 -9t9.5 -22q0 -33 22.5 -55.5t53.5 -22.5q33 0 54 22.5t23 51.5l-215 1258v6q0 57 40 97t98 40q59 0 99 -40t40 -97q0 -14 -9.5 -23.5t-21.5 -9.5q-31 0 -31 33q0 31 -22.5 53.5t-54.5 22.5q-31 0 -52.5 -21.5t-23.5 -52.5 l215 -1258v-4q0 -59 -40 -99t-99 -40q-57 0 -97.5 40t-40.5 99z" />
<glyph unicode="T" horiz-adv-x="421" d="M41 1505q0 12 8 21.5t23 9.5h276q12 0 21.5 -9t9.5 -22q0 -14 -9.5 -22t-21.5 -8h-104v-1444q0 -12 -9.5 -21.5t-23.5 -9.5q-12 0 -21.5 9t-9.5 22v1444h-108q-31 0 -31 30z" />
<glyph unicode="U" horiz-adv-x="485" d="M102 139v1366q0 12 9.5 21.5t21.5 9.5q14 0 23.5 -9t9.5 -22v-1366q0 -33 21.5 -55.5t54.5 -22.5q31 0 53 22.5t22 55.5v1366q0 12 9.5 21.5t21.5 9.5q14 0 22.5 -9t8.5 -22v-1366q0 -59 -40 -99t-97 -40t-98.5 40t-41.5 99z" />
<glyph unicode="V" horiz-adv-x="485" d="M104 1503q0 29 29 33h5q10 0 18 -7q10 -9 12 -22l76 -1046l75 1046q1 11 11 21q8 8 18 8h4q29 -4 29 -27v-6l-107 -1474q-3 -29 -30 -29q-12 0 -21.5 8t-9.5 21z" />
<glyph unicode="W" horiz-adv-x="696" d="M102 139v1366q0 12 9.5 21.5t21.5 9.5q14 0 22.5 -9t8.5 -22v-1366q0 -33 22.5 -55.5t55.5 -22.5q31 0 53 22.5t22 55.5v1366q0 12 9.5 21.5t21.5 9.5t21.5 -9t9.5 -22v-1366q0 -33 22.5 -55.5t53.5 -22.5q33 0 54 22.5t21 55.5v1366q0 12 9.5 21.5t23.5 9.5 q12 0 21.5 -9t9.5 -22v-1366q0 -59 -40 -99t-99 -40q-33 0 -60.5 14.5t-46.5 36.5q-18 -23 -46 -37t-60 -14q-59 0 -99.5 40t-40.5 99z" />
<glyph unicode="X" horiz-adv-x="485" d="M102 35l107 733l-107 733q-2 12 5.5 22.5t21.5 12.5h5q10 0 18 -6q10 -8 12 -21l76 -524l77 524q3 13 13 21q8 7 17 6h5q12 -2 20.5 -12.5t6.5 -22.5l-107 -733l107 -733q2 -12 -6 -22.5t-21 -12.5h-4q-27 0 -31 27l-77 526l-76 -526q-4 -27 -31 -27h-4q-14 2 -21.5 12.5 t-5.5 22.5z" />
<glyph unicode="Y" horiz-adv-x="452" d="M72 1499v7q0 24 26 28q4 1 8 1q8 0 14 -5q11 -8 13 -21l76 -534l78 534q2 12 11 21q7 5 16 5q4 0 8 -1q12 -2 20 -12q6 -7 6 -18v-5l-108 -745v-723q0 -31 -31 -31q-12 0 -21.5 8t-9.5 23v723z" />
<glyph unicode="Z" horiz-adv-x="485" d="M102 35l209 1440h-178q-12 0 -21.5 8t-9.5 22q0 12 9.5 21.5t21.5 9.5h215q12 0 23 -10q8 -10 8 -25l-209 -1440h178q12 0 21.5 -8t9.5 -22q0 -12 -9.5 -21.5t-21.5 -9.5h-215q-16 0 -22 10q-10 14 -9 25z" />
<glyph unicode="[" horiz-adv-x="483" d="M102 31v1474q0 12 9.5 21.5t23.5 9.5h213q14 0 23.5 -9t9.5 -22q0 -33 -33 -32h-182v-1412h182q14 0 23.5 -9t9.5 -21t-9.5 -21.5t-23.5 -9.5h-213q-14 0 -23.5 9t-9.5 22z" />
<glyph unicode="\" d="M106 1497q-4 14 4.5 23.5t20.5 13.5q14 2 23.5 -6t13.5 -21l213 -1474q4 -12 -4 -22.5t-21 -12.5h-6q-27 0 -31 27z" />
<glyph unicode="]" d="M102 31q0 12 9.5 21t21.5 9h184v1412h-184q-12 0 -21.5 9t-9.5 23q0 12 9.5 21.5t21.5 9.5h215q12 0 21.5 -9t9.5 -22v-1474q0 -12 -9.5 -21.5t-21.5 -9.5h-215q-12 0 -21.5 9t-9.5 22z" />
<glyph unicode="^" horiz-adv-x="483" d="M109 1171l106 342q8 23 31 23q20 0 28 -23l109 -342q6 -31 -21 -41h-10q-23 0 -28 21l-78 250l-78 -250q-10 -27 -39 -21q-12 4 -18.5 15.5t-1.5 25.5z" />
<glyph unicode="_" horiz-adv-x="483" d="M102 33q0 12 9.5 21t21.5 9h215q12 0 21.5 -9t9.5 -21q0 -14 -9.5 -23.5t-21.5 -9.5h-215q-12 0 -21.5 9t-9.5 24z" />
<glyph unicode="`" horiz-adv-x="339" d="M107 1505.5q2 12.5 12 20.5t23.5 6t19.5 -12l63 -86q18 -25 -6 -43q-10 -11 -22 -7q-14 4 -21 13l-63 86q-8 10 -6 22.5z" />
<glyph unicode="a" horiz-adv-x="485" d="M102 137v154q0 59 41 99t99 40q41 0 75 -22v251q0 33 -22.5 54.5t-52.5 21.5q-33 0 -54.5 -21.5t-21.5 -54.5q0 -12 -9.5 -21t-21.5 -9q-14 0 -23.5 9t-9.5 21q0 57 41 98.5t99 41.5q57 0 97 -41t40 -99v-522q0 -57 -40 -97t-97 -40t-98.5 40t-41.5 97zM166 137 q0 -31 21.5 -53.5t54.5 -22.5q31 0 53 22.5t22 53.5v154q0 33 -22 54.5t-53 21.5q-33 0 -54.5 -21.5t-21.5 -54.5v-154z" />
<glyph unicode="b" horiz-adv-x="485" d="M102 137v1366q0 14 9.5 23.5t21.5 9.5q33 0 33 -33v-727q33 23 76 23q57 0 97 -41t40 -99v-522q0 -57 -40 -97t-97 -40t-98.5 40t-41.5 97zM166 137q0 -31 21.5 -53.5t54.5 -22.5q31 0 53 22.5t22 53.5v522q0 33 -22.5 54.5t-52.5 21.5q-33 0 -54.5 -21.5t-21.5 -54.5 v-522z" />
<glyph unicode="c" horiz-adv-x="483" d="M102 137v522q0 57 40 98.5t98 41.5q59 0 99 -41t40 -99q0 -12 -9.5 -21t-21.5 -9q-14 0 -23.5 9t-9.5 21q0 33 -21.5 54.5t-53.5 21.5q-31 0 -53.5 -21.5t-22.5 -54.5v-522q0 -31 22.5 -53.5t53.5 -22.5q33 0 54 22.5t21 53.5t33 31q12 0 21.5 -8t9.5 -23q0 -57 -40 -97 t-99 -40q-57 0 -97.5 40t-40.5 97z" />
<glyph unicode="d" horiz-adv-x="485" d="M102 137v522q0 57 40 98.5t100 41.5q41 0 75 -23v727q0 14 9.5 23.5t21.5 9.5t21.5 -9t9.5 -24v-1366q0 -57 -40 -97t-97 -40q-59 0 -99.5 40t-40.5 97zM164 137q0 -31 22.5 -53.5t55.5 -22.5q31 0 53 22.5t22 53.5v522q0 33 -22 54.5t-53 21.5q-33 0 -55.5 -21.5 t-22.5 -54.5v-522z" />
<glyph unicode="e" horiz-adv-x="483" d="M102 137v522q0 57 41 98.5t99 41.5q57 0 98 -41t41 -99v-260q0 -33 -33 -32h-182v-230q0 -31 21.5 -53.5t54.5 -22.5q31 0 53 22.5t22 53.5q0 14 9.5 22.5t21.5 8.5q33 0 33 -31q0 -57 -41 -97t-98 -40t-98.5 40t-41.5 97zM166 430h151v229q0 33 -22 54.5t-53 21.5 q-33 0 -54.5 -21.5t-21.5 -54.5v-229z" />
<glyph unicode="f" horiz-adv-x="430" d="M102 137v1260q0 57 40 98t98 41q57 0 98 -41t41 -98q0 -12 -9.5 -21.5t-23.5 -9.5q-12 0 -21.5 9t-9.5 22q0 31 -21.5 53.5t-53.5 22.5q-31 0 -53.5 -23t-22.5 -53v-598h182q33 0 33 -33q0 -12 -9.5 -21.5t-23.5 -9.5h-182v-598q0 -31 22.5 -53.5t53.5 -22.5q14 0 22 -9 t8 -21q0 -31 -30 -31q-57 0 -97.5 40t-40.5 97z" />
<glyph unicode="g" d="M102 137v522q0 59 40.5 99.5t97.5 40.5q59 0 99 -40t40 -100v-452v-70v-368q0 -57 -40 -97.5t-99 -40.5q-57 0 -97.5 40t-40.5 98v77q0 12 8.5 21.5t22.5 9.5q12 0 21.5 -9t9.5 -22v-77q0 -31 22.5 -53.5t53.5 -22.5q33 0 54 22.5t21 53.5v254q-33 -23 -75 -23 q-57 0 -97.5 40t-40.5 97zM164 137q0 -31 22.5 -53.5t53.5 -22.5q33 0 54 22.5t21 53.5v70v452q0 33 -21.5 54.5t-53.5 21.5q-31 0 -53.5 -21.5t-22.5 -54.5v-522z" />
<glyph unicode="h" horiz-adv-x="485" d="M102 31v532v96v844q0 14 9.5 23.5t21.5 9.5q31 0 31 -33v-727q35 23 76 23q59 0 99 -41t40 -99v-628q0 -14 -9.5 -22.5t-21.5 -8.5q-31 0 -31 31v628q0 33 -22.5 54.5t-54.5 21.5q-31 0 -53.5 -21.5t-22.5 -54.5v-96v-532q0 -31 -31 -31q-12 0 -21.5 8t-9.5 23z" />
<glyph unicode="i" horiz-adv-x="266" d="M102 31v737q0 12 9.5 21.5t21.5 9.5t21.5 -9.5t9.5 -21.5v-737q0 -14 -9.5 -22.5t-21.5 -8.5t-21.5 8t-9.5 23zM102 926v106q0 12 9.5 21.5t21.5 9.5t21.5 -9.5t9.5 -21.5v-106q0 -12 -9.5 -21.5t-21.5 -9.5t-21.5 9t-9.5 22z" />
<glyph unicode="j" horiz-adv-x="378" d="M0 -154q0 12 9 21.5t22 9.5q14 0 23 -9t9 -22v-77q0 -31 21.5 -53.5t54.5 -22.5q31 0 53.5 22.5t22.5 53.5v999q0 12 9 21.5t22 9.5q14 0 22 -9.5t8 -21.5v-999q0 -57 -40 -97.5t-97 -40.5t-98 40t-41 98v77zM215 926v106q0 12 9 21.5t22 9.5q14 0 22 -9.5t8 -21.5v-106 q0 -12 -8 -21.5t-22 -9.5q-12 0 -21.5 9t-9.5 22z" />
<glyph unicode="k" horiz-adv-x="479" d="M102 31v1472q0 14 9.5 23.5t21.5 9.5q31 0 31 -33v-989l158 268q14 27 43 13q16 -11 16 -25q0 -8 -6 -18l-148 -254l150 -459q3 -7 3 -14q0 -18 -22 -25h-10q-20 0 -31 20l-131 406l-22 -35v-360q0 -31 -31 -31q-12 0 -21.5 8t-9.5 23z" />
<glyph unicode="l" horiz-adv-x="382" d="M102 137v1366q0 14 9.5 23.5t21.5 9.5q31 0 31 -33v-1366q0 -31 22.5 -53.5t55.5 -22.5q12 0 21 -9t9 -21q0 -14 -9 -22.5t-21 -8.5q-59 0 -99.5 40t-40.5 97z" />
<glyph unicode="m" horiz-adv-x="696" d="M102 31v628q0 57 40 98.5t98 41.5q35 0 61.5 -14.5t46.5 -36.5q18 23 46 37t61 14q57 0 98 -41t41 -99v-628q0 -14 -9.5 -22.5t-21.5 -8.5q-33 0 -33 31v628q0 33 -21.5 54.5t-53.5 21.5q-31 0 -53.5 -21.5t-22.5 -54.5v-628q0 -14 -9.5 -22.5t-21.5 -8.5q-31 0 -31 31 v628q0 33 -22.5 54.5t-54.5 21.5q-31 0 -53.5 -21.5t-22.5 -54.5v-628q0 -14 -9.5 -22.5t-21.5 -8.5t-21.5 8t-9.5 23z" />
<glyph unicode="n" horiz-adv-x="483" d="M102 31v628q0 57 41 98.5t99 41.5q57 0 98 -41t41 -99v-628q0 -31 -33 -31q-12 0 -21.5 8t-9.5 23v628q0 33 -22.5 54.5t-52.5 21.5q-33 0 -54.5 -21.5t-21.5 -54.5v-628q0 -14 -9.5 -22.5t-21.5 -8.5q-33 0 -33 31z" />
<glyph unicode="o" d="M102 137v522q0 57 40 98.5t100 41.5q57 0 97 -41t40 -99v-522q0 -57 -40 -97t-97 -40q-59 0 -99.5 40t-40.5 97zM164 137q0 -31 22.5 -53.5t55.5 -22.5q31 0 53 22.5t22 53.5v522q0 33 -22 54.5t-53 21.5q-33 0 -55.5 -21.5t-22.5 -54.5v-522z" />
<glyph unicode="p" d="M102 -338v997q0 59 40 99.5t98 40.5q59 0 99 -40t40 -100v-522q0 -57 -40 -97t-99 -40q-41 0 -76 23v-361q0 -12 -8.5 -21.5t-22.5 -9.5q-12 0 -21.5 9.5t-9.5 21.5zM164 137q0 -31 22.5 -53.5t53.5 -22.5q33 0 55 22.5t22 53.5v522q0 33 -22.5 54.5t-54.5 21.5 q-31 0 -53.5 -21.5t-22.5 -54.5v-522z" />
<glyph unicode="q" d="M102 137v522q0 59 40 99.5t100 40.5q57 0 97 -40t40 -100v-997q0 -12 -9.5 -21.5t-21.5 -9.5t-21.5 9.5t-9.5 21.5v361q-35 -23 -75 -23q-59 0 -99.5 40t-40.5 97zM164 137q0 -31 22.5 -53.5t55.5 -22.5q31 0 53 22.5t22 53.5v522q0 33 -22 54.5t-53 21.5 q-33 0 -55.5 -21.5t-22.5 -54.5v-522z" />
<glyph unicode="r" horiz-adv-x="450" d="M102 31v628q0 57 40 98.5t98 41.5q59 0 99 -41t40 -99q0 -12 -9.5 -21t-21.5 -9q-14 0 -22.5 9t-8.5 21q0 33 -22.5 54.5t-54.5 21.5q-31 0 -53.5 -21.5t-22.5 -54.5v-628q0 -31 -31 -31q-12 0 -21.5 8t-9.5 23z" />
<glyph unicode="s" horiz-adv-x="483" d="M102 137q0 12 9.5 21.5t23.5 9.5q12 0 21.5 -9t9.5 -22q0 -31 21.5 -53.5t54.5 -22.5q31 0 52 20.5t23 49.5l-211 516q-4 8 -4 12q0 57 41 98.5t99 41.5q57 0 98 -41t41 -99q0 -12 -9.5 -21t-23.5 -9q-12 0 -21.5 9t-9.5 21q0 33 -22.5 54.5t-52.5 21.5 q-31 0 -52.5 -20.5t-23.5 -48.5l211 -516q4 -8 4 -13q0 -57 -41 -97t-98 -40t-98.5 40t-41.5 97z" />
<glyph unicode="t" horiz-adv-x="413" d="M61 768q0 12 9.5 21.5t23.5 9.5h76v704q0 14 9 23.5t22 9.5q12 0 21 -9t9 -24v-704h76q14 0 22.5 -9.5t8.5 -21.5q0 -33 -31 -33h-76v-76v-157v-365q0 -31 22.5 -53.5t53.5 -22.5q14 0 23.5 -9t9.5 -21q0 -31 -33 -31q-57 0 -97 40t-40 97v365v157v76h-76q-33 0 -33 33z " />
<glyph unicode="u" d="M102 137v631q0 12 9.5 21.5t21.5 9.5t21.5 -9.5t9.5 -21.5v-631q0 -31 22.5 -53.5t53.5 -22.5q33 0 54 22.5t21 53.5v631q0 12 9.5 21.5t23.5 9.5q12 0 21.5 -9.5t9.5 -21.5v-631q0 -57 -40 -97t-99 -40q-57 0 -97.5 40t-40.5 97z" />
<glyph unicode="v" horiz-adv-x="483" d="M104 762v5q0 11 6 19q8 10 21 13h5q10 -1 18 -7q10 -8 12 -20l76 -526l77 526q3 12 13 20q8 7 17 7h5q12 -3 20 -13q7 -8 8 -19q0 -3 -1 -5l-107 -735q-5 -27 -32 -27q-25 0 -31 27z" />
<glyph unicode="w" horiz-adv-x="696" d="M102 137v631q0 12 9.5 21.5t21.5 9.5q14 0 22.5 -9.5t8.5 -21.5v-631q0 -31 22.5 -53.5t55.5 -22.5q31 0 53 22.5t22 53.5v631q0 12 9.5 21.5t21.5 9.5t21.5 -9.5t9.5 -21.5v-631q0 -31 22.5 -53.5t53.5 -22.5q33 0 55 22.5t22 53.5v631q0 12 8.5 21.5t22.5 9.5 q12 0 21.5 -9.5t9.5 -21.5v-631q0 -57 -40 -97t-99 -40q-68 0 -107 49q-39 -49 -106 -49q-59 0 -99.5 40t-40.5 97z" />
<glyph unicode="x" d="M109 39l104 360l-104 359q-2 5 -2 10q0 8 4 14q6 12 18 15q5 1 10 1q21 0 29 -22l78 -266l76 266q8 22 28 22q4 0 10 -1q12 -3 18 -15q4 -7 5 -15q0 -4 -2 -9l-105 -359l105 -360q2 -5 2 -10q0 -7 -4 -13q-6 -12 -19 -16h-8q-25 0 -30 20l-76 267l-78 -267 q-6 -20 -31 -20h-8q-13 4 -19 16q-4 6 -3 13q0 5 2 10z" />
<glyph unicode="y" d="M102 137v631q0 12 8.5 21.5t22.5 9.5q12 0 21.5 -9.5t9.5 -21.5v-631q0 -31 22.5 -53.5t53.5 -22.5q33 0 54 22.5t21 53.5v154v477q0 12 9.5 21.5t23.5 9.5q12 0 21.5 -9.5t9.5 -21.5v-477v-154v-368q0 -57 -41 -97.5t-98 -40.5t-97.5 40t-40.5 98v77q0 12 8.5 21.5 t22.5 9.5q12 0 21.5 -9t9.5 -22v-77q0 -31 22.5 -53.5t53.5 -22.5q33 0 54 22.5t21 53.5v254q-33 -23 -75 -23q-57 0 -97.5 40t-40.5 97z" />
<glyph unicode="z" horiz-adv-x="483" d="M102 768q0 12 9.5 21.5t23.5 9.5h213q16 0 25 -13q7 -9 7 -19q0 -4 -1 -9l-203 -697h172q14 0 22.5 -9t8.5 -21q0 -31 -31 -31h-213q-18 0 -26 12q-8 10 -5 27l203 696h-172q-33 0 -33 33z" />
<glyph unicode="{" d="M102 768q0 12 9.5 21.5t23.5 9.5q31 0 53 22q23 23 23 53v523q0 57 40 98t97 41q14 0 22.5 -9t8.5 -22q0 -33 -31 -32q-31 0 -53.5 -21.5t-22.5 -54.5v-523q0 -33 -14 -60.5t-37 -45.5q4 -4 6 -5t4 -5q41 -41 41 -99v-522q0 -31 22.5 -53.5t53.5 -22.5q14 0 22.5 -9 t8.5 -21t-8.5 -21.5t-22.5 -9.5q-57 0 -97 40t-40 97v522q0 33 -22.5 54.5t-53.5 23.5q-12 0 -22.5 8.5t-10.5 22.5z" />
<glyph unicode="|" horiz-adv-x="266" d="M102 -45v1620q0 14 9.5 22.5t21.5 8.5q31 0 31 -31v-1620q0 -12 -8.5 -21.5t-22.5 -9.5q-12 0 -21.5 9.5t-9.5 21.5z" />
<glyph unicode="}" d="M102 31q0 12 9.5 21t21.5 9q33 0 55.5 22.5t22.5 53.5v522q0 66 49 109q-6 6 -10 8q-39 43 -39 98v523q0 33 -22.5 54.5t-55.5 21.5q-12 0 -21.5 9t-9.5 23q0 12 9.5 21.5t21.5 9.5q59 0 99 -41t40 -98v-523q0 -31 21.5 -53t54.5 -22q12 0 21.5 -9.5t9.5 -21.5 q0 -31 -31 -31t-53 -22q-23 -23 -23 -56v-522q0 -57 -40 -97t-99 -40q-12 0 -21.5 9t-9.5 22z" />
<glyph unicode="~" horiz-adv-x="778" d="M102 592q0 57 40 97t100 40q8 0 18 -6l285 -207q29 4 47 25.5t18 50.5q0 31 -22.5 53.5t-52.5 22.5q-12 0 -21.5 9t-9.5 21q0 14 9 22.5t22 8.5q57 0 98 -40t41 -97q0 -59 -41 -99t-98 -40q-10 0 -19 6l-285 209q-29 -4 -48 -25.5t-19 -50.5q0 -33 22.5 -54.5t55.5 -21.5 q12 0 21 -9t9 -24q0 -12 -9 -21t-21 -9q-59 0 -99.5 41t-40.5 98z" />
<glyph unicode="&#xa1;" horiz-adv-x="268" d="M102 31v1239q0 12 9.5 21t23.5 9q12 0 21.5 -9t9.5 -21v-1239q0 -12 -9.5 -21.5t-21.5 -9.5q-14 0 -23.5 9t-9.5 22zM102 1399v106q0 12 9.5 21.5t23.5 9.5q12 0 21.5 -9t9.5 -22v-106q0 -12 -9.5 -21.5t-21.5 -9.5q-14 0 -23.5 9t-9.5 22z" />
<glyph unicode="&#xa2;" d="M102 221v522q0 49 30 87t77 49v65q0 12 9 21.5t22 9.5q14 0 22 -9.5t8 -21.5v-65q47 -10 78 -48t31 -88q0 -12 -9.5 -21t-23.5 -9q-12 0 -21.5 9t-9.5 21q0 31 -21.5 53.5t-53.5 22.5q-31 0 -53.5 -22.5t-22.5 -53.5v-522q0 -33 22.5 -54.5t53.5 -21.5q33 0 54 21.5 t21 54.5q0 12 9.5 21.5t21.5 9.5q14 0 23.5 -9.5t9.5 -21.5q0 -49 -31 -87t-78 -48v-55q0 -12 -8 -21.5t-22 -9.5q-12 0 -21.5 9t-9.5 22v55q-47 10 -77 48t-30 87z" />
<glyph unicode="&#xa3;" horiz-adv-x="542" d="M76 31q0 14 9 22t21 8q33 0 55.5 22.5t22.5 55.5v598h-78q-12 0 -21 9.5t-9 21.5t9 21.5t21 9.5h78v598q0 59 40 99t98 40q57 0 98 -40t41 -99q0 -12 -9.5 -21.5t-21.5 -9.5q-14 0 -23.5 9t-9.5 22q0 33 -21.5 55.5t-53.5 22.5q-31 0 -53.5 -22.5t-22.5 -55.5v-598h184 q12 0 21.5 -9.5t9.5 -21.5t-9.5 -21.5t-21.5 -9.5h-184v-598q0 -43 -23 -78h207q12 0 21.5 -8t9.5 -22q0 -12 -9.5 -21.5t-21.5 -9.5h-324q-12 0 -21 9t-9 22z" />
<glyph unicode="&#xa5;" horiz-adv-x="452" d="M70 657q0 12 9 21.5t21 9.5h76v60h-76q-12 0 -21 8t-9 22q0 12 9 21.5t21 9.5h70l-100 690q-2 14 6 23.5t20 11.5q12 4 22.5 -4t12.5 -21l78 -534l76 534q2 12 12 20.5t22 4.5q12 -2 20.5 -11.5t6.5 -23.5l-98 -690h67q12 0 21.5 -9t9.5 -22q0 -14 -9 -22t-22 -8h-75v-60 h75q12 0 21.5 -9t9.5 -22q0 -14 -9 -22t-22 -8h-75v-596q0 -14 -9.5 -22.5t-21.5 -8.5q-33 0 -33 31v596h-76q-12 0 -21 8t-9 22z" />
<glyph unicode="&#xa9;" horiz-adv-x="1705" />
<glyph unicode="&#xad;" horiz-adv-x="485" d="M102 522q0 12 9.5 21.5t23.5 9.5h213q14 0 23.5 -9t9.5 -22q0 -30 -33 -30h-213q-33 0 -33 30z" />
<glyph unicode="&#xb0;" horiz-adv-x="430" d="M102 1421q0 47 33 81t80 34t81 -34t34 -81t-34 -79.5t-81 -32.5t-80 32.5t-33 79.5zM164 1421q0 -23 14.5 -37t36.5 -14q23 0 38 14.5t15 36.5q0 23 -15 38.5t-38 15.5t-37 -15.5t-14 -38.5z" />
<glyph unicode="&#xb1;" horiz-adv-x="1705" />
<glyph unicode="&#xbf;" horiz-adv-x="483" d="M102 137v6l109 627v500q0 12 8 21t23 9q12 0 21 -9t9 -21v-502v-6l-106 -625q0 -33 22.5 -54.5t53.5 -21.5t53 22.5t22 53.5q0 14 9.5 23.5t21.5 9.5t21.5 -9t9.5 -24q0 -57 -40 -97t-97 -40q-59 0 -99.5 40t-40.5 97zM211 1399v106q0 12 8 21.5t23 9.5q12 0 21 -9t9 -22 v-106q0 -12 -9 -21.5t-21 -9.5q-14 0 -22.5 9t-8.5 22z" />
<glyph unicode="&#xc0;" horiz-adv-x="491" d="M104 31v1362q0 57 40 97t98 40q57 0 97 -40t40 -97v-142v-1220q0 -12 -9.5 -21.5t-21.5 -9.5t-21.5 9t-9.5 22v704h-151v-704q0 -12 -9.5 -21.5t-21.5 -9.5q-14 0 -22.5 9t-8.5 22zM166 797h151v55v541q0 31 -22.5 53t-52.5 22q-33 0 -54.5 -22.5t-21.5 -52.5v-596z M172 1767.5q0 12.5 10 22.5q20 18 43 0l76 -76q20 -23 0 -43q-10 -10 -22 -10t-23 10l-74 74q-10 10 -10 22.5z" />
<glyph unicode="&#xc1;" horiz-adv-x="491" d="M104 31v1362q0 57 40 97t98 40q57 0 97 -40t40 -97v-142v-1220q0 -12 -8.5 -21.5t-22.5 -9.5q-12 0 -21.5 9t-9.5 22v704h-151v-704q0 -12 -9.5 -21.5t-21.5 -9.5t-21.5 9t-9.5 22zM166 797h151v55v541q0 31 -21.5 53t-53.5 22q-31 0 -53.5 -22.5t-22.5 -52.5v-596z M172 1692.5q0 11.5 10 21.5l76 76q8 8 20.5 8t22.5 -8q10 -10 10 -22.5t-10 -22.5l-74 -74q-10 -10 -22 -10t-23 10q-10 10 -10 21.5z" />
<glyph unicode="&#xc2;" horiz-adv-x="491" d="M104 31v1362q0 57 40 97t98 40q57 0 97 -40t40 -97v-142v-1220q0 -12 -8.5 -21.5t-22.5 -9.5q-12 0 -21.5 9t-9.5 22v704h-151v-704q0 -12 -9.5 -21.5t-21.5 -9.5q-14 0 -22.5 9t-8.5 22zM151 1693.5q-1 12.5 7 22.5l59 72q10 10 24.5 10t24.5 -10l60 -72q8 -10 7 -22.5 t-11 -20.5q-8 -8 -21 -8q-16 0 -25 12l-34 41l-35 -41q-20 -25 -45 -4q-10 8 -11 20.5zM166 797h151v55v541q0 33 -22.5 54t-52.5 21q-31 0 -53.5 -21.5t-22.5 -53.5v-596z" />
<glyph unicode="&#xc3;" horiz-adv-x="491" d="M102 31v1366q0 59 40 99t100 40q57 0 97 -40t40 -99v-142v-1224q0 -12 -8.5 -21.5t-22.5 -9.5q-12 0 -21.5 9t-9.5 22v706h-151v-706q0 -12 -9.5 -21.5t-23.5 -9.5q-12 0 -21.5 9t-9.5 22zM131 1739q0 25 17.5 42t41.5 17q4 0 13 -4l94 -74q12 2 12 19q0 18 -18 18 q-20 0 -21 21q0 20 21 20q27 0 44 -17.5t17 -41.5q0 -25 -17.5 -43.5t-43.5 -18.5q-6 0 -12 6l-95 72q-12 -4 -12 -16q0 -18 18 -19q20 0 21 -20q-1 -23 -21 -23q-25 0 -42 18.5t-17 43.5zM166 799h151v55v543q0 33 -22.5 55.5t-52.5 22.5q-33 0 -54.5 -22.5t-21.5 -55.5 v-598z" />
<glyph unicode="&#xc4;" horiz-adv-x="491" d="M104 31v1362q0 57 40 97t98 40q57 0 97 -40t40 -97v-142v-1220q0 -12 -8.5 -21.5t-22.5 -9.5q-12 0 -21.5 9t-9.5 22v704h-151v-704q0 -12 -9.5 -21.5t-21.5 -9.5t-21.5 9t-9.5 22zM152 1696v71q0 12 9 21.5t21 9.5t21.5 -9t9.5 -22v-71q0 -12 -9.5 -21.5t-21.5 -9.5 t-21 9t-9 22zM166 797h151v55v541q0 31 -22.5 53t-52.5 22q-31 0 -53.5 -22.5t-22.5 -52.5v-596zM270 1696v71q0 12 9.5 21.5t21.5 9.5t21.5 -9t9.5 -22v-71q0 -12 -9.5 -21.5t-21.5 -9.5t-21.5 9t-9.5 22z" />
<glyph unicode="&#xc5;" horiz-adv-x="491" d="M104 31v1358q0 57 40 97t98 40q57 0 98 -40t41 -97v-142v-1216q0 -12 -9.5 -21.5t-23.5 -9.5q-12 0 -21.5 9t-9.5 22v702h-151v-702q0 -12 -8 -21.5t-23 -9.5q-12 0 -21.5 9t-9.5 22zM166 795h151v55v539q0 31 -21.5 53t-53.5 22q-31 0 -53.5 -22.5t-22.5 -52.5v-594z M170 1726q0 29 21.5 50.5t50.5 21.5q31 0 51 -21.5t20 -50.5t-20 -50t-51 -21q-29 0 -50.5 21.5t-21.5 49.5zM213 1726q0 -12 8 -21t21 -9q14 0 22 9t8 21t-8 21.5t-22 9.5q-12 0 -20.5 -9t-8.5 -22z" />
<glyph unicode="&#xc6;" horiz-adv-x="696" d="M102 31v1366q0 57 40 98t100 41q33 0 60.5 -14.5t45.5 -36.5q18 23 46 37t61 14q59 0 99 -41t40 -98q0 -12 -9.5 -21.5t-21.5 -9.5q-14 0 -22.5 9t-8.5 22q0 33 -22.5 54.5t-54.5 21.5q-31 0 -53.5 -21.5t-22.5 -54.5v-598h184q12 0 21.5 -9.5t9.5 -21.5 q0 -14 -9.5 -23.5t-21.5 -9.5h-184v-598q0 -31 22.5 -53.5t53.5 -22.5q33 0 55 22.5t22 53.5t31 31q12 0 21.5 -8t9.5 -23q0 -57 -40 -97t-99 -40q-57 0 -97.5 40t-40.5 97v598h-153v-704q0 -31 -31 -31q-12 0 -21.5 8t-9.5 23zM164 799h153v55v543q0 33 -22.5 54.5 t-52.5 21.5q-33 0 -55.5 -21.5t-22.5 -54.5v-598z" />
<glyph unicode="&#xc7;" horiz-adv-x="489" d="M102 137v1258q0 59 40 99t98 40q59 0 99 -40t40 -99q0 -12 -9.5 -21.5t-21.5 -9.5q-14 0 -23.5 9t-9.5 22q0 33 -21.5 55.5t-53.5 22.5q-31 0 -53.5 -23t-22.5 -55v-1258q0 -33 22.5 -55.5t53.5 -22.5q33 0 54 22.5t21 55.5q0 12 9.5 21.5t23.5 9.5q12 0 21.5 -9t9.5 -22 q0 -53 -35 -92t-86 -47l-16 -41q16 -8 27.5 -24.5t11.5 -38.5q0 -29 -19.5 -48.5t-48.5 -19.5q-20 0 -20 20t20 21q25 0 25 27q0 29 -25 28h-2h-2h-2q0 2 -2 2h-2v2h-2h-2v2q-2 0 -2 2l-2 2v2l-2 3v2v2v2v2v2v2v2h2l18 49q-47 10 -79 48t-32 89z" />
<glyph unicode="&#xc8;" horiz-adv-x="491" d="M102 139v1254q0 57 41 97t99 40q57 0 97 -40t40 -97q0 -12 -9.5 -21.5t-21.5 -9.5t-21.5 9t-9.5 22q0 31 -22.5 53t-52.5 22q-33 0 -54.5 -22.5t-21.5 -52.5v-596h182q12 0 21.5 -9.5t9.5 -21.5q0 -14 -9.5 -22.5t-21.5 -8.5h-182v-596q0 -33 21.5 -54.5t54.5 -21.5 q31 0 53 21.5t22 54.5q0 12 9.5 21.5t21.5 9.5t21.5 -9t9.5 -22q0 -59 -40 -99t-97 -40t-98.5 40t-41.5 99zM172 1767.5q0 12.5 10 22.5q20 18 43 0l76 -76q20 -23 0 -43q-10 -10 -22 -10t-23 10l-74 74q-10 10 -10 22.5z" />
<glyph unicode="&#xc9;" horiz-adv-x="491" d="M102 139v1254q0 57 40 97t100 40q57 0 97 -40t40 -97q0 -12 -9.5 -21.5t-21.5 -9.5q-14 0 -22.5 9t-8.5 22q0 31 -22.5 53t-52.5 22q-33 0 -54.5 -22.5t-21.5 -52.5v-596h182q12 0 21.5 -9.5t9.5 -21.5q0 -14 -9.5 -22.5t-21.5 -8.5h-182v-596q0 -33 21.5 -54.5 t54.5 -21.5q31 0 53 21.5t22 54.5q0 12 8.5 21.5t22.5 9.5q12 0 21.5 -9t9.5 -22q0 -59 -40 -99t-97 -40q-59 0 -99.5 40t-40.5 99zM172 1692.5q0 11.5 10 21.5l74 76q10 8 22.5 8t20.5 -8q10 -10 10 -22.5t-10 -22.5l-74 -74q-10 -10 -22 -10q-10 0 -21 10q-10 10 -10 21.5 z" />
<glyph unicode="&#xca;" horiz-adv-x="491" d="M102 139v1254q0 57 40 97t98 40q57 0 97 -40t40 -97q0 -12 -8.5 -21.5t-22.5 -9.5q-12 0 -21.5 9t-9.5 22q0 33 -21.5 54t-53.5 21q-31 0 -53.5 -21.5t-22.5 -53.5v-596h182q14 0 22.5 -9.5t8.5 -21.5q0 -31 -31 -31h-182v-596q0 -33 22.5 -54.5t53.5 -21.5q33 0 54 21.5 t21 54.5q0 12 9.5 21.5t21.5 9.5q14 0 22.5 -9t8.5 -22q0 -59 -40 -99t-97 -40t-97.5 40t-40.5 99zM148.5 1693.5q-1.5 12.5 9.5 22.5l57 72q10 10 24.5 10t24.5 -10l60 -72q8 -10 7 -22.5t-12 -20.5q-8 -8 -20 -8q-16 0 -25 12l-34 41l-35 -41q-20 -25 -45 -4 q-10 8 -11.5 20.5z" />
<glyph unicode="&#xcb;" horiz-adv-x="491" d="M102 139v1254q0 57 40 97t98 40q57 0 97 -40t40 -97q0 -12 -9.5 -21.5t-21.5 -9.5t-21.5 9t-9.5 22q0 31 -22.5 53t-52.5 22q-33 0 -54.5 -22.5t-21.5 -52.5v-596h182q12 0 21.5 -9.5t9.5 -21.5q0 -14 -9.5 -22.5t-21.5 -8.5h-182v-596q0 -33 21.5 -54.5t54.5 -21.5 q31 0 53 21.5t22 54.5q0 12 9.5 21.5t21.5 9.5t21.5 -9t9.5 -22q0 -59 -40 -99t-97 -40t-97.5 40t-40.5 99zM150 1696v71q0 12 9 21.5t21 9.5t21.5 -9t9.5 -22v-71q0 -12 -9.5 -21.5t-21.5 -9.5t-21 9t-9 22zM268 1696v71q0 12 8.5 21.5t22.5 9.5q12 0 21.5 -9t9.5 -22v-71 q0 -12 -9.5 -21.5t-21.5 -9.5q-14 0 -22.5 9t-8.5 22z" />
<glyph unicode="&#xcc;" horiz-adv-x="266" d="M29 1767.5q0 12.5 10 22.5q23 18 45 0l74 -76q20 -23 0 -43q-11 -10 -23 -10q-10 0 -20 10l-76 74q-10 10 -10 22.5zM104 31v1468q0 12 9.5 21.5t21.5 9.5q14 0 22.5 -9.5t8.5 -21.5v-1468q0 -12 -8.5 -21.5t-22.5 -9.5q-12 0 -21.5 9t-9.5 22z" />
<glyph unicode="&#xcd;" horiz-adv-x="266" d="M102.5 1692.5q-0.5 11.5 10.5 21.5l75 76q20 18 43 0q10 -10 10.5 -22.5t-10.5 -22.5l-73 -74q-11 -10 -23 -10t-22 10t-10.5 21.5zM104 31v1468q0 12 9.5 21.5t21.5 9.5t21.5 -9.5t9.5 -21.5v-1468q0 -12 -9.5 -21.5t-21.5 -9.5t-21.5 9t-9.5 22z" />
<glyph unicode="&#xce;" horiz-adv-x="266" d="M44 1693.5q-1 12.5 9 22.5l58 72q10 10 24.5 10t24.5 -10l59 -72q8 -10 7 -22.5t-11 -20.5q-8 -8 -20 -8q-16 0 -25 12l-35 41l-35 -41q-20 -25 -45 -4q-10 8 -11 20.5zM104 31v1468q0 14 9.5 22.5t21.5 8.5t21.5 -8.5t9.5 -22.5v-1468q0 -12 -9.5 -21.5t-21.5 -9.5 t-21.5 9t-9.5 22z" />
<glyph unicode="&#xcf;" horiz-adv-x="266" d="M43 1696v71q0 12 9 21.5t24 9.5q12 0 21 -9t9 -22v-71q0 -12 -9 -21.5t-21 -9.5q-14 0 -23.5 9t-9.5 22zM102 31v1468q0 12 9.5 21.5t21.5 9.5q14 0 23.5 -9.5t9.5 -21.5v-1468q0 -12 -9.5 -21.5t-23.5 -9.5q-12 0 -21.5 9t-9.5 22zM162 1696v71q0 12 9 21.5t22 9.5 q14 0 23 -9t9 -22v-71q0 -12 -9 -21.5t-23 -9.5q-12 0 -21.5 9t-9.5 22z" />
<glyph unicode="&#xd0;" horiz-adv-x="512" d="M39 768q0 12 8 21.5t23 9.5h55v704q0 14 9 23.5t22 9.5h106q59 0 99 -41t40 -98v-1260q0 -57 -39.5 -97t-99.5 -40h-106q-12 0 -21.5 8t-9.5 23v704h-55q-31 0 -31 33zM186 61h76q33 0 55.5 22.5t22.5 53.5v1260q0 33 -22.5 54.5t-55.5 21.5h-76v-674h56q14 0 23 -9.5 t9 -21.5q0 -33 -32 -33h-56v-674z" />
<glyph unicode="&#xd1;" horiz-adv-x="483" d="M102 31v1474q0 27 27 31t35 -23l153 -526v518q0 12 8.5 21.5t22.5 9.5q12 0 21.5 -9t9.5 -22v-1474q0 -12 -9.5 -21.5t-21.5 -9.5q-14 0 -22.5 9t-8.5 22v733l-153 522v-1255q0 -12 -9.5 -21.5t-21.5 -9.5t-21.5 9t-9.5 22zM131 1739q0 25 17.5 42t41.5 17q4 0 13 -4 l94 -74q12 4 12 19q0 18 -18 18q-20 0 -21 21q0 20 21 20q25 0 42 -17.5t17 -41.5q0 -25 -17.5 -43.5t-41.5 -18.5q-6 0 -12 6l-95 72q-12 -4 -12 -16q0 -18 18 -19q20 0 21 -20q-1 -23 -21 -23q-25 0 -42 18.5t-17 43.5z" />
<glyph unicode="&#xd2;" horiz-adv-x="487" d="M104 139v1254q0 57 40.5 97t97.5 40t98 -40t41 -97v-1254q0 -59 -41 -99t-98 -40t-97.5 40t-40.5 99zM166 139q0 -33 22.5 -54.5t53.5 -21.5q33 0 54 21.5t21 54.5v1254q0 31 -21.5 53t-53.5 22q-31 0 -53.5 -22.5t-22.5 -52.5v-1254zM182 1745q-18 23 0 45q23 18 45 0 l74 -76q20 -23 0 -43q-10 -10 -22 -10q-10 0 -21 10z" />
<glyph unicode="&#xd3;" horiz-adv-x="487" d="M102 139v1254q0 57 40.5 97t99.5 40q57 0 97 -40t40 -97v-1254q0 -59 -40 -99t-97 -40q-59 0 -99.5 40t-40.5 99zM166 139q0 -33 21.5 -54.5t54.5 -21.5q31 0 53 21.5t22 54.5v1254q0 31 -22.5 53t-52.5 22q-33 0 -54.5 -22.5t-21.5 -52.5v-1254zM172 1692.5 q0 11.5 10 21.5l74 76q10 8 22.5 8t20.5 -8q10 -10 10 -22.5t-10 -22.5l-74 -74q-10 -10 -22 -10q-10 0 -21 10q-10 10 -10 21.5z" />
<glyph unicode="&#xd4;" horiz-adv-x="487" d="M102 139v1254q0 57 41.5 97t98.5 40t97 -40t40 -97v-1254q0 -59 -40 -99t-97 -40t-98.5 40t-41.5 99zM151 1693.5q-1 12.5 7 22.5l59 72q10 10 24.5 10t22.5 -10l60 -72q10 -10 8 -22.5t-13 -20.5q-6 -8 -18 -8q-16 0 -25 12l-34 41l-37 -41q-18 -25 -43 -4 q-10 8 -11 20.5zM166 139q0 -33 21.5 -54.5t54.5 -21.5q31 0 53 21.5t22 54.5v1254q0 33 -22.5 54t-52.5 21q-33 0 -54.5 -21.5t-21.5 -53.5v-1254z" />
<glyph unicode="&#xd5;" horiz-adv-x="487" d="M104 139v1258q0 59 40.5 99t97.5 40q59 0 99 -40t40 -99v-1258q0 -59 -40 -99t-99 -40q-57 0 -97.5 40t-40.5 99zM133 1739q0 25 17.5 42t42.5 17q4 0 12 -4l94 -74q12 4 12 19q0 18 -18 18q-20 0 -21 21q0 20 21 20q25 0 42 -17.5t17 -41.5q0 -25 -17.5 -43.5 t-41.5 -18.5q-6 0 -12 6l-95 72q-12 -4 -12 -16q0 -18 19 -19q20 0 20 -20q0 -23 -20 -23q-25 0 -42.5 18.5t-17.5 43.5zM166 139q0 -33 22.5 -55.5t53.5 -22.5q33 0 55 22.5t22 55.5v1258q0 33 -22.5 55.5t-54.5 22.5q-31 0 -53.5 -22.5t-22.5 -55.5v-1258z" />
<glyph unicode="&#xd6;" horiz-adv-x="487" d="M104 139v1254q0 57 40.5 97t97.5 40t98 -40t41 -97v-1254q0 -59 -41 -99t-98 -40t-97.5 40t-40.5 99zM152 1696v71q0 12 9 21.5t21 9.5q14 0 22.5 -9t8.5 -22v-71q0 -12 -8.5 -21.5t-22.5 -9.5q-12 0 -21 9t-9 22zM166 139q0 -33 22.5 -54.5t53.5 -21.5q33 0 54 21.5 t21 54.5v1254q0 31 -21.5 53t-53.5 22q-31 0 -53.5 -22.5t-22.5 -52.5v-1254zM270 1696v71q0 12 9.5 21.5t21.5 9.5t21.5 -9t9.5 -22v-71q0 -12 -9.5 -21.5t-21.5 -9.5t-21.5 9t-9.5 22z" />
<glyph unicode="&#xd7;" horiz-adv-x="417" d="M100.5 464.5q-0.5 12.5 10.5 20.5l55 56l-53 53q-10 10 -11.5 22.5t9.5 22.5q20 20 45 0l53 -55l53 55q10 10 22.5 9t20.5 -9q10 -10 10 -22.5t-10 -22.5l-53 -53l53 -54q25 -23 2 -45q-10 -10 -22.5 -9t-22.5 11l-53 54l-55 -56q-10 -10 -21.5 -10t-21.5 10t-10.5 22.5z " />
<glyph unicode="&#xd8;" d="M102 139v1260q0 57 40 97t98 40q47 0 88 -31v2q0 10 7 15.5t15 3.5q23 -4 19 -25l-7 -39q16 -29 17 -63v-1260q0 -59 -40 -99t-99 -40q-45 0 -86 31v-2q-4 -18 -21 -19h-2q-23 4 -18 25l6 39q-16 29 -17 65zM164 389l149 1028q-6 25 -25.5 41.5t-47.5 16.5 q-31 0 -53.5 -22.5t-22.5 -53.5v-1010zM166 119q8 -25 27.5 -41.5t46.5 -16.5q33 0 54 22.5t21 55.5v1008z" />
<glyph unicode="&#xd9;" horiz-adv-x="485" d="M102 139v1360q0 12 9.5 21.5t21.5 9.5t21.5 -9.5t9.5 -21.5v-1360q0 -33 22.5 -54.5t53.5 -21.5q33 0 54 21.5t21 54.5v1360q0 12 9.5 21.5t21.5 9.5q14 0 22.5 -9.5t8.5 -21.5v-1360q0 -59 -40 -99t-97 -40t-97.5 40t-40.5 99zM170 1767.5q0 12.5 10 22.5q23 18 45 0 l74 -76q20 -23 0 -43q-10 -10 -23 -10q-10 0 -20 10l-76 74q-10 10 -10 22.5z" />
<glyph unicode="&#xda;" horiz-adv-x="485" d="M104 139v1360q0 14 9.5 23.5t21.5 9.5q31 0 31 -33v-1360q0 -33 22.5 -54.5t53.5 -21.5q33 0 54 21.5t21 54.5v1360q0 33 33 33q12 0 21.5 -9.5t9.5 -23.5v-1360q0 -59 -40 -99t-99 -40q-57 0 -97.5 40t-40.5 99zM174 1692.5q0 11.5 10 21.5l74 76q20 18 43 0 q10 -10 10 -22.5t-10 -22.5l-74 -74q-10 -10 -22 -10q-14 0 -21 10q-10 10 -10 21.5z" />
<glyph unicode="&#xdb;" horiz-adv-x="485" d="M102 139v1360q0 14 9.5 22.5t21.5 8.5t21.5 -8.5t9.5 -22.5v-1360q0 -33 22.5 -54.5t53.5 -21.5q33 0 54 21.5t21 54.5v1360q0 14 9.5 22.5t21.5 8.5q33 0 33 -31v-1360q0 -59 -41 -99t-98 -40t-97.5 40t-40.5 99zM149.5 1693.5q-2.5 12.5 8.5 22.5l59 72q8 10 22.5 10 t24.5 -10l60 -72q8 -10 7 -22.5t-12 -20.5q-8 -8 -20 -8q-14 0 -23 12l-36 41l-35 -41q-8 -10 -20.5 -12t-22.5 8q-10 8 -12.5 20.5z" />
<glyph unicode="&#xdc;" horiz-adv-x="485" d="M104 139v1360q0 12 9.5 21.5t21.5 9.5t21.5 -9.5t9.5 -21.5v-1360q0 -33 22.5 -54.5t53.5 -21.5q33 0 54 21.5t21 54.5v1360q0 12 9.5 21.5t21.5 9.5q14 0 22.5 -9.5t8.5 -21.5v-1360q0 -59 -40 -99t-97 -40t-97.5 40t-40.5 99zM152 1696v71q0 12 9 21.5t21 9.5 q14 0 22.5 -9t8.5 -22v-71q0 -12 -8.5 -21.5t-22.5 -9.5q-12 0 -21 9t-9 22zM270 1696v71q0 12 9.5 21.5t21.5 9.5t21.5 -9t9.5 -22v-71q0 -12 -9.5 -21.5t-21.5 -9.5t-21.5 9t-9.5 22z" />
<glyph unicode="&#xdd;" horiz-adv-x="452" d="M72 1495q-4 12 4 22.5t20 12.5q31 4 37 -27l76 -530l76 530q2 14 12 21.5t22 5.5t20.5 -12.5t6.5 -22.5l-106 -741v-723q0 -12 -9.5 -21.5t-21.5 -9.5q-14 0 -22.5 9t-8.5 22v723zM139.5 1692.5q-0.5 11.5 10.5 21.5l73 76q23 18 45 0q18 -23 0 -45l-75 -74 q-11 -10 -21 -10q-12 0 -22 10t-10.5 21.5z" />
<glyph unicode="&#xde;" horiz-adv-x="483" d="M102 31v1474q0 12 9.5 21.5t23.5 9.5q12 0 21.5 -9t9.5 -22v-338h76q57 0 98 -40t41 -97v-522q0 -59 -41 -99t-98 -40h-76v-338q0 -12 -9.5 -21.5t-21.5 -9.5q-14 0 -23.5 9t-9.5 22zM166 430h76q31 0 53 22.5t22 55.5v522q0 31 -22.5 53.5t-52.5 22.5h-76v-676z" />
<glyph unicode="&#xdf;" d="M102 31v1366q0 57 40 98t100 41q57 0 97 -41t40 -98v-361q0 -33 -14.5 -60.5t-36.5 -47.5q23 -18 37 -46t14 -61v-684q0 -57 -40 -97t-97 -40q-14 0 -23.5 9t-9.5 22q0 12 9 21t24 9q31 0 53 22.5t22 53.5v684q0 33 -22.5 54.5t-52.5 21.5q-14 0 -23.5 9t-9.5 22 q0 33 33 33q31 0 53 21.5t22 53.5v361q0 33 -22.5 54.5t-52.5 21.5q-33 0 -55.5 -21.5t-22.5 -54.5v-1366q0 -12 -8.5 -21.5t-22.5 -9.5q-12 0 -21.5 9t-9.5 22z" />
<glyph unicode="&#xe0;" horiz-adv-x="485" d="M102 139v154q0 57 41 98t99 41q23 0 41 -7t34 -17v254q0 31 -22.5 53t-52.5 22q-33 0 -54.5 -22.5t-21.5 -52.5q0 -31 -33 -31q-12 0 -21.5 8t-9.5 23q0 57 41.5 97t98.5 40t97 -40t40 -97v-523q0 -57 -40 -98t-97 -41t-98.5 41t-41.5 98zM166 139q0 -33 21.5 -54.5 t54.5 -21.5q31 0 53 21.5t22 54.5v154q0 33 -22.5 54.5t-52.5 21.5q-33 0 -54.5 -21.5t-21.5 -54.5v-154zM172 1018.5q0 11.5 10 21.5q20 20 43 0l76 -73q10 -10 10 -22.5t-10 -22.5q-8 -8 -22 -9q-14 0 -23 9l-74 75q-10 10 -10 21.5z" />
<glyph unicode="&#xe1;" horiz-adv-x="485" d="M102 139v154q0 57 40 98t100 41q20 0 39.5 -7t35.5 -17v254q0 31 -22.5 53t-52.5 22q-33 0 -55.5 -22.5t-22.5 -52.5q0 -31 -31 -31q-12 0 -21.5 8t-9.5 23q0 57 40.5 97t99.5 40q57 0 97 -40t40 -97v-523q0 -57 -40 -98t-97 -41q-59 0 -99.5 41t-40.5 98zM164 139 q0 -33 22.5 -54.5t55.5 -21.5q31 0 53 21.5t22 54.5v154q0 33 -22.5 54.5t-52.5 21.5q-33 0 -55.5 -21.5t-22.5 -54.5v-154zM170 944q0 12 10 23l76 73q20 20 43 0q20 -23 0 -43l-74 -75q-8 -9 -22 -9t-23 9q-10 10 -10 22z" />
<glyph unicode="&#xe2;" horiz-adv-x="485" d="M102 139v154q0 57 41 98t99 41q23 0 41 -7t34 -17v254q0 31 -22.5 53t-52.5 22q-33 0 -54.5 -22.5t-21.5 -52.5q0 -14 -9.5 -22.5t-21.5 -8.5q-33 0 -33 31q0 57 41.5 97t98.5 40t98 -40t41 -97v-523q0 -57 -41 -98t-98 -41t-98.5 41t-41.5 98zM151 944q-1 12 7 23l59 71 q10 10 24.5 10.5t22.5 -10.5l60 -71q10 -10 8 -22.5t-13 -20.5q-6 -8 -18 -9q-16 0 -25 13l-34 43l-37 -43q-8 -10 -20.5 -12.5t-22.5 8.5q-10 8 -11 20zM166 139q0 -33 21.5 -54.5t54.5 -21.5q31 0 53 21.5t22 54.5v154q0 33 -22.5 54.5t-52.5 21.5q-33 0 -54.5 -21.5 t-21.5 -54.5v-154z" />
<glyph unicode="&#xe3;" horiz-adv-x="485" d="M102 139v154q0 57 40 98t100 41q20 0 39.5 -7t35.5 -17v254q0 31 -22.5 53t-52.5 22q-33 0 -55.5 -22.5t-22.5 -52.5q0 -31 -31 -31q-12 0 -21.5 8t-9.5 23q0 57 40.5 97t99.5 40q57 0 97 -40t40 -97v-523q0 -57 -40 -98t-97 -41q-59 0 -99.5 41t-40.5 98zM131 983 q0 25 17.5 42t41.5 17q4 0 13 -4l94 -71q12 2 12 16q0 18 -18 18q-20 0 -21 21q0 20 21 20q25 0 42 -17t17 -42t-17.5 -42t-41.5 -17q-4 0 -12 4l-95 71q-12 -4 -12 -16q0 -18 18 -18q20 0 21 -21q-1 -20 -21 -20q-25 0 -42 17t-17 42zM164 139q0 -33 22.5 -54.5t55.5 -21.5 q31 0 53 21.5t22 54.5v154q0 33 -22.5 54.5t-52.5 21.5q-33 0 -55.5 -21.5t-22.5 -54.5v-154z" />
<glyph unicode="&#xe4;" horiz-adv-x="485" d="M102 139v154q0 57 41 98t99 41q41 0 75 -24v254q0 31 -21.5 53t-53.5 22q-31 0 -53.5 -22.5t-22.5 -52.5q0 -14 -9.5 -22.5t-21.5 -8.5q-33 0 -33 31q0 57 41.5 97t98.5 40t98 -40t41 -97v-523q0 -57 -41 -98t-98 -41t-98.5 41t-41.5 98zM152 948v70q0 33 30 33 q12 0 21.5 -9.5t9.5 -23.5v-70q0 -14 -9.5 -23.5t-21.5 -9.5q-31 0 -30 33zM166 139q0 -33 22.5 -54.5t53.5 -21.5q33 0 54 21.5t21 54.5v154q0 33 -21.5 54.5t-53.5 21.5q-31 0 -53.5 -21.5t-22.5 -54.5v-154zM270 948v70q0 33 31 33q12 0 21.5 -9.5t9.5 -23.5v-70 q0 -14 -9.5 -23.5t-21.5 -9.5q-31 0 -31 33z" />
<glyph unicode="&#xe5;" horiz-adv-x="485" d="M102 139v154q0 57 40 98t100 41q20 0 39.5 -7t35.5 -17v254q0 31 -22.5 53t-52.5 22q-33 0 -54.5 -22.5t-21.5 -52.5q0 -31 -33 -31q-12 0 -21.5 8t-9.5 23q0 57 40.5 97t99.5 40q57 0 97 -40t40 -97v-523q0 -57 -40 -98t-97 -41t-98.5 41t-41.5 98zM166 139 q0 -33 21.5 -54.5t54.5 -21.5q31 0 53 21.5t22 54.5v154q0 33 -22.5 54.5t-52.5 21.5q-33 0 -54.5 -21.5t-21.5 -54.5v-154zM168 995q0 29 21.5 50.5t52.5 21.5q29 0 50 -21.5t21 -50.5t-21 -50t-50 -21q-31 0 -52.5 21.5t-21.5 49.5zM211 995q0 -12 8 -21t23 -9q12 0 20 9 t8 21t-8 21.5t-20 9.5q-14 0 -22.5 -9t-8.5 -22z" />
<glyph unicode="&#xe6;" horiz-adv-x="698" d="M102 139v154q0 57 41 98t99 41q23 0 41 -7t34 -17v254q0 31 -22.5 53t-52.5 22q-33 0 -54.5 -22.5t-21.5 -52.5q0 -14 -9.5 -22.5t-21.5 -8.5q-33 0 -33 31q0 57 41 97t99 40q68 0 108 -51q39 51 107 51q57 0 98 -40t41 -97v-263q0 -12 -9 -21t-24 -9h-182v-230 q0 -33 22.5 -54.5t53.5 -21.5q33 0 54 21.5t21 54.5q0 12 9.5 21.5t21.5 9.5q14 0 23.5 -9t9.5 -22q0 -57 -41 -98t-98 -41q-68 0 -107 53q-43 -53 -108 -53q-57 0 -98.5 41t-41.5 98zM166 139q0 -33 21.5 -54.5t54.5 -21.5q31 0 53 21.5t22 54.5v154q0 31 -22.5 53.5 t-52.5 22.5q-33 0 -54.5 -22.5t-21.5 -53.5v-154zM381 432h151v230q0 31 -21.5 53t-53.5 22q-31 0 -53.5 -22.5t-22.5 -52.5v-230z" />
<glyph unicode="&#xe7;" horiz-adv-x="483" d="M104 135v522q0 59 40 99.5t100 40.5q57 0 97 -40t40 -100q0 -12 -9.5 -21t-21.5 -9t-21.5 9t-9.5 21q0 33 -22.5 54.5t-52.5 21.5q-33 0 -55.5 -21.5t-22.5 -54.5v-522q0 -31 22.5 -53.5t55.5 -22.5q31 0 53 22.5t22 53.5q0 14 9.5 22.5t21.5 8.5t21.5 -8t9.5 -23 q0 -49 -31 -87t-78 -48l-20 -51q39 -16 39 -64q0 -29 -18.5 -48t-47.5 -19q-20 0 -20 20t20 21q25 0 25 26q0 29 -25 29q-6 0 -8 2q-2 0 -4 2q-2 0 -2 2q-2 0 -2 2l-4 4v2v6v5v4l22 55q-53 6 -88 45t-35 92z" />
<glyph unicode="&#xe8;" horiz-adv-x="483" d="M102 139v523q0 57 41 97t99 40q57 0 97 -40t40 -97v-263q0 -12 -8.5 -21t-22.5 -9h-182v-230q0 -33 21.5 -54.5t54.5 -21.5q31 0 53 21.5t22 54.5q0 12 9.5 21.5t21.5 9.5q14 0 22.5 -9t8.5 -22q0 -57 -40 -98t-97 -41t-98.5 41t-41.5 98zM166 432h151v230q0 31 -22.5 53 t-52.5 22q-33 0 -54.5 -22.5t-21.5 -52.5v-230zM172 1018.5q0 11.5 10 21.5q20 20 43 0l76 -73q10 -10 10 -22.5t-10 -22.5q-8 -8 -22 -9q-14 0 -23 9l-74 75q-10 10 -10 21.5z" />
<glyph unicode="&#xe9;" horiz-adv-x="483" d="M102 139v523q0 57 41 97t99 40q57 0 97 -40t40 -97v-263q0 -12 -8.5 -21t-22.5 -9h-182v-230q0 -33 21.5 -54.5t54.5 -21.5q31 0 53 21.5t22 54.5q0 12 9.5 21.5t21.5 9.5q14 0 22.5 -9t8.5 -22q0 -57 -40 -98t-97 -41t-98.5 41t-41.5 98zM166 432h151v230q0 31 -22.5 53 t-52.5 22q-33 0 -54.5 -22.5t-21.5 -52.5v-230zM172 944q0 12 10 23l74 73q23 23 45 0q20 -23 0 -43l-76 -75q-8 -9 -22 -9q-12 0 -21 9q-10 10 -10 22z" />
<glyph unicode="&#xea;" horiz-adv-x="483" d="M102 139v523q0 57 40 97t98 40q59 0 99 -40t40 -97v-263q0 -12 -9.5 -21t-21.5 -9h-184v-230q0 -33 22.5 -54.5t53.5 -21.5q33 0 55 21.5t22 54.5q0 12 8.5 21.5t22.5 9.5q12 0 21.5 -9t9.5 -22q0 -57 -40 -98t-99 -41q-57 0 -97.5 41t-40.5 98zM148.5 944 q-1.5 12 7.5 23l61 71q8 10 22.5 10.5t24.5 -10.5l60 -71q8 -10 7 -22.5t-12 -20.5q-8 -8 -20 -9q-14 0 -23 13l-36 43l-35 -43q-8 -10 -21.5 -12.5t-23.5 8.5q-10 8 -11.5 20zM164 432h153v230q0 31 -22.5 53t-54.5 22q-31 0 -53.5 -22.5t-22.5 -52.5v-230z" />
<glyph unicode="&#xeb;" horiz-adv-x="483" d="M102 139v523q0 57 40 97t98 40q59 0 99 -40t40 -97v-263q0 -12 -9.5 -21t-21.5 -9h-184v-230q0 -33 22.5 -54.5t55.5 -21.5q31 0 53 21.5t22 54.5q0 12 8.5 21.5t22.5 9.5q12 0 21.5 -9t9.5 -22q0 -57 -40 -98t-97 -41q-59 0 -99.5 41t-40.5 98zM150 948v70q0 14 9 23.5 t21 9.5q31 0 31 -33v-70q0 -33 -31 -33q-12 0 -21 9.5t-9 23.5zM164 432h153v230q0 31 -22.5 53t-54.5 22q-31 0 -53.5 -22.5t-22.5 -52.5v-230zM268 948v70q0 14 9.5 23.5t21.5 9.5q33 0 33 -33v-70q0 -33 -33 -33q-12 0 -21.5 9.5t-9.5 23.5z" />
<glyph unicode="&#xec;" horiz-adv-x="348" d="M74 1018.5q0 11.5 10 21.5q20 20 43 0l76 -73q10 -10 10 -22.5t-10 -22.5q-9 -9 -23 -9t-22 9l-74 75q-10 10 -10 21.5zM143 31v737q0 14 9.5 22.5t21.5 8.5q31 0 31 -31v-737q0 -12 -8.5 -21.5t-22.5 -9.5q-12 0 -21.5 9t-9.5 22z" />
<glyph unicode="&#xed;" horiz-adv-x="348" d="M141.5 944q-0.5 12 10.5 23l75 73q20 20 43 0q20 -23 0 -43l-73 -75q-8 -8 -23 -9q-14 0 -22 9q-10 10 -10.5 22zM143 31v737q0 14 9.5 22.5t21.5 8.5t21.5 -8.5t9.5 -22.5v-737q0 -12 -9.5 -21.5t-21.5 -9.5t-21.5 9t-9.5 22z" />
<glyph unicode="&#xee;" horiz-adv-x="348" d="M84 944q-2 12 8 23l60 71q8 10 22 10.5t25 -10.5l59 -71q8 -10 7 -22.5t-11 -20.5q-8 -8 -21 -9q-14 0 -22 13l-37 43l-35 -43q-8 -10 -20.5 -12.5t-22.5 8.5q-10 8 -12 20zM143 31v737q0 14 9.5 22.5t21.5 8.5q31 0 31 -31v-737q0 -12 -8.5 -21.5t-22.5 -9.5 q-12 0 -21.5 9t-9.5 22z" />
<glyph unicode="&#xef;" horiz-adv-x="348" d="M84 946v72q0 33 31 33q12 0 21 -9.5t9 -23.5v-72q0 -12 -9 -21.5t-21 -9.5q-14 0 -22.5 9.5t-8.5 21.5zM143 31v737q0 14 9.5 22.5t21.5 8.5t21.5 -8.5t9.5 -22.5v-737q0 -12 -9.5 -21.5t-21.5 -9.5t-21.5 9t-9.5 22zM203 946v72q-1 33 30 33q12 0 21.5 -9.5t9.5 -23.5 v-72q0 -12 -9 -21.5t-22 -9.5q-14 0 -22 9.5t-8 21.5z" />
<glyph unicode="&#xf0;" horiz-adv-x="487" d="M102 139v523q0 57 40 97t98 40h2h65l-41 139l-39 -35q-6 -8 -20 -8q-12 0 -23 10q-10 10 -9 22.5t11 20.5l62 56l-144 493q-4 12 2.5 23.5t18.5 15.5t23.5 -3t15.5 -20l135 -462l29 26q10 10 22 9t21 -11q20 -20 -2 -43l-52 -47l62 -209v-8v-629q0 -59 -40 -99t-97 -40 q-59 0 -99.5 40t-40.5 99zM164 139q0 -33 22.5 -54.5t55.5 -21.5q31 0 53 21.5t22 54.5v598h-75q-33 0 -55.5 -22.5t-22.5 -52.5v-523z" />
<glyph unicode="&#xf1;" horiz-adv-x="483" d="M104 31v631q0 57 40.5 97t97.5 40q59 0 99 -40t40 -97v-631q0 -12 -9.5 -21.5t-21.5 -9.5q-14 0 -23.5 9t-9.5 22v631q0 31 -21.5 53t-53.5 22q-31 0 -53.5 -22.5t-22.5 -52.5v-631q0 -12 -9.5 -21.5t-21.5 -9.5t-21.5 9t-9.5 22zM131 983q0 25 18.5 42t43.5 17 q4 0 12 -4l94 -71q12 4 12 16q0 18 -18 18q-20 0 -21 21q0 20 21 20q25 0 42 -17t17 -42t-17.5 -42t-41.5 -17q-4 0 -12 4l-95 71q-12 -4 -12 -16q0 -18 19 -18q20 0 20 -21q0 -20 -20 -20q-25 0 -43.5 17t-18.5 42z" />
<glyph unicode="&#xf2;" d="M102 139v523q0 57 41.5 97t98.5 40t97 -40t40 -97v-523q0 -57 -40 -98t-97 -41t-98.5 41t-41.5 98zM166 139q0 -33 21.5 -54.5t54.5 -21.5q31 0 53 21.5t22 54.5v523q0 31 -22.5 53t-52.5 22q-33 0 -54.5 -22.5t-21.5 -52.5v-523zM172 1018.5q0 11.5 10 21.5q20 20 43 0 l76 -73q10 -10 10 -22.5t-10 -22.5q-8 -8 -22 -9q-14 0 -23 9l-74 75q-10 10 -10 21.5z" />
<glyph unicode="&#xf3;" d="M104 139v523q0 57 40.5 97t97.5 40q59 0 99 -40t40 -97v-523q0 -57 -40 -98t-99 -41q-57 0 -97.5 41t-40.5 98zM166 139q0 -33 22.5 -54.5t53.5 -21.5q33 0 54 21.5t21 54.5v523q0 31 -21.5 53t-53.5 22q-31 0 -53.5 -22.5t-22.5 -52.5v-523zM172 944q0 12 10 23l76 73 q8 10 20.5 10.5t22.5 -10.5q20 -23 0 -43l-74 -75q-8 -9 -22 -9t-23 9q-10 10 -10 22z" />
<glyph unicode="&#xf4;" d="M102 139v523q0 57 40.5 97t99.5 40q57 0 97 -40t40 -97v-523q0 -57 -40 -98t-97 -41q-59 0 -99.5 41t-40.5 98zM149.5 944q-2.5 12 8.5 23l59 71q10 10 23.5 10.5t23.5 -10.5l60 -71q10 -10 8 -22.5t-13 -20.5q-8 -8 -18 -9q-16 0 -25 13l-34 43l-37 -43 q-8 -10 -20.5 -12.5t-22.5 8.5q-10 8 -12.5 20zM166 139q0 -33 21.5 -54.5t54.5 -21.5q31 0 53 21.5t22 54.5v523q0 31 -22.5 53t-52.5 22q-33 0 -54.5 -22.5t-21.5 -52.5v-523z" />
<glyph unicode="&#xf5;" d="M102 139v523q0 57 40.5 97t97.5 40q59 0 99 -40t40 -97v-523q0 -57 -40 -98t-99 -41q-57 0 -97.5 41t-40.5 98zM129 983q0 25 17.5 42t41.5 17q6 0 15 -4l94 -71q12 4 12 16q0 18 -18 18q-20 0 -21 21q0 20 21 20q25 0 42 -17t17 -42t-17.5 -42t-41.5 -17q-8 0 -12 4 l-95 71q-12 -4 -12 -16q0 -18 16 -18q23 0 23 -21q0 -20 -23 -20q-25 0 -42 17t-17 42zM164 139q0 -33 22.5 -54.5t53.5 -21.5q33 0 54 21.5t21 54.5v523q0 31 -21.5 53t-53.5 22q-31 0 -53.5 -22.5t-22.5 -52.5v-523z" />
<glyph unicode="&#xf6;" d="M102 139v523q0 57 40.5 97t99.5 40q57 0 97 -40t40 -97v-523q0 -57 -40 -98t-97 -41q-59 0 -99.5 41t-40.5 98zM150 948v70q0 14 9 23.5t21 9.5q31 0 31 -33v-70q0 -33 -31 -33q-12 0 -21 9.5t-9 23.5zM164 139q0 -33 22.5 -54.5t55.5 -21.5q31 0 53 21.5t22 54.5v523 q0 31 -22.5 53t-52.5 22q-33 0 -55.5 -22.5t-22.5 -52.5v-523zM268 948v70q0 14 9.5 23.5t21.5 9.5q33 0 33 -33v-70q0 -33 -33 -33q-12 0 -21.5 9.5t-9.5 23.5z" />
<glyph unicode="&#xf8;" d="M102 139v523q0 57 41 97t99 40q47 0 86 -29v4q4 8 11 13.5t15 0.5q18 -6 15 -26l-9 -29q18 -35 19 -71v-523q0 -57 -40 -98t-97 -41q-45 0 -86 31l-2 -6q-4 -16 -21 -17q-2 0 -2 1t-2 1q-23 4 -14 25l8 33q-20 35 -21 71zM166 211l141 487q-23 39 -65 39 q-33 0 -54.5 -22.5t-21.5 -52.5v-451zM176 100q21 -37 66 -37q31 0 53 21.5t22 54.5v449z" />
<glyph unicode="&#xf9;" d="M102 139v629q0 31 31 31q12 0 21.5 -8.5t9.5 -22.5v-629q0 -33 22.5 -54.5t53.5 -21.5q33 0 54 21.5t21 54.5v629q0 14 9.5 22.5t21.5 8.5q33 0 33 -31v-629q0 -57 -41 -98t-98 -41t-97.5 41t-40.5 98zM170 1018.5q0 11.5 10 21.5q20 20 43 0l76 -73q10 -10 10 -22.5 t-10 -22.5q-8 -8 -23 -9q-14 0 -22 9l-74 75q-10 10 -10 21.5z" />
<glyph unicode="&#xfa;" d="M102 139v629q0 31 31 31q12 0 21.5 -8.5t9.5 -22.5v-629q0 -33 22.5 -54.5t53.5 -21.5q33 0 54 21.5t21 54.5v629q0 31 33 31q12 0 21.5 -8.5t9.5 -22.5v-629q0 -57 -40 -98t-99 -41q-57 0 -97.5 41t-40.5 98zM170 944q0 12 10 23l76 73q8 10 20.5 10.5t22.5 -10.5 q20 -23 0 -43l-74 -75q-8 -9 -22 -9t-23 9q-10 10 -10 22z" />
<glyph unicode="&#xfb;" d="M100 139v629q0 31 33 31q12 0 21.5 -8.5t9.5 -22.5v-629q0 -33 22.5 -54.5t53.5 -21.5q33 0 54 21.5t21 54.5v629q0 14 9.5 22.5t21.5 8.5q33 0 33 -31v-629q0 -57 -41 -98t-98 -41t-98.5 41t-41.5 98zM148.5 944q-1.5 12 7.5 23l59 71q10 10 24.5 10.5t24.5 -10.5 l60 -71q8 -10 7 -22.5t-12 -20.5q-8 -8 -20 -9q-16 0 -25 13l-34 43l-37 -43q-18 -25 -43 -4q-10 8 -11.5 20z" />
<glyph unicode="&#xfc;" d="M102 139v629q0 31 31 31q12 0 21.5 -8.5t9.5 -22.5v-629q0 -33 22.5 -54.5t53.5 -21.5q33 0 54 21.5t21 54.5v629q0 31 33 31q12 0 21.5 -8.5t9.5 -22.5v-629q0 -57 -41 -98t-98 -41t-97.5 41t-40.5 98zM150 948v70q0 14 9 23.5t21 9.5t21.5 -9.5t9.5 -23.5v-70 q0 -14 -9.5 -23.5t-21.5 -9.5t-21 9.5t-9 23.5zM268 948v70q0 14 9.5 23.5t21.5 9.5t21.5 -9.5t9.5 -23.5v-70q0 -14 -9.5 -23.5t-21.5 -9.5t-21.5 9.5t-9.5 23.5z" />
<glyph unicode="&#xfd;" d="M102 139v629q0 33 31 33q12 0 21.5 -9.5t9.5 -23.5v-629q0 -33 22.5 -54.5t53.5 -21.5q33 0 54 21.5t21 54.5v154v475q0 14 9.5 23.5t21.5 9.5q33 0 33 -33v-475v-154v-368q0 -57 -41 -97.5t-98 -40.5t-97.5 40t-40.5 98v75q0 33 31 33q12 0 21.5 -9t9.5 -24v-75 q0 -31 22.5 -53.5t53.5 -22.5q33 0 54 22.5t21 53.5v254q-35 -25 -75 -25q-57 0 -97.5 41t-40.5 98zM170 944q0 12 10 23l76 73q20 20 43 0q20 -23 0 -43l-74 -75q-8 -9 -22 -9t-23 9q-10 10 -10 22z" />
<glyph unicode="&#xfe;" d="M102 139v523v475q0 12 9.5 21t21.5 9t21.5 -9t9.5 -21v-361q35 23 76 23q59 0 99 -40t40 -97v-523q0 -59 -40 -99t-99 -40q-41 0 -76 23v-361q0 -12 -9.5 -21.5t-21.5 -9.5t-21.5 9.5t-9.5 21.5v477zM164 139q0 -33 22.5 -55.5t53.5 -22.5q33 0 55 22.5t22 55.5v523 q0 31 -22.5 53t-54.5 22q-31 0 -53.5 -22.5t-22.5 -52.5v-523z" />
<glyph unicode="&#xff;" d="M100 139v629q0 14 9.5 23.5t21.5 9.5t21.5 -9.5t9.5 -23.5v-629q0 -33 22.5 -54.5t53.5 -21.5q33 0 55 21.5t22 54.5v154v475q0 33 31 33q12 0 21.5 -9.5t9.5 -23.5v-475v-154v-368q0 -57 -40 -97.5t-99 -40.5q-57 0 -97.5 40t-40.5 98v75q0 14 9.5 23.5t21.5 9.5 t21.5 -9t9.5 -24v-75q0 -31 22.5 -53.5t53.5 -22.5q33 0 55 22.5t22 53.5v254q-16 -10 -35.5 -17.5t-41.5 -7.5q-57 0 -97.5 41t-40.5 98zM147 948v72q0 12 9.5 21.5t21.5 9.5q14 0 23.5 -9.5t9.5 -21.5v-72q0 -33 -33 -33q-12 0 -21.5 9.5t-9.5 23.5zM266 948v72 q0 12 9.5 21.5t21.5 9.5q14 0 23.5 -9.5t9.5 -21.5v-72q0 -33 -33 -33q-12 0 -21.5 9.5t-9.5 23.5z" />
<glyph unicode="&#x152;" horiz-adv-x="696" d="M102 139v1260q0 57 40 97t100 40q68 0 106 -51q39 51 107 51q59 0 99 -40t40 -97q0 -14 -9.5 -23.5t-21.5 -9.5q-31 0 -31 33q0 31 -22.5 53.5t-54.5 22.5q-31 0 -53.5 -22.5t-22.5 -53.5v-600h184q12 0 21.5 -8.5t9.5 -22.5q0 -12 -9.5 -21.5t-21.5 -9.5h-184v-598 q0 -33 22.5 -54.5t53.5 -21.5q33 0 55 21.5t22 54.5q0 12 8.5 21.5t22.5 9.5q12 0 21.5 -9t9.5 -22q0 -57 -40 -98t-99 -41q-33 0 -60.5 14.5t-46.5 36.5q-18 -23 -46 -37t-60 -14q-59 0 -99.5 41t-40.5 98zM164 139q0 -33 22.5 -54.5t55.5 -21.5q31 0 53 21.5t22 54.5v1260 q0 31 -22.5 53.5t-52.5 22.5q-33 0 -55.5 -22.5t-22.5 -53.5v-1260z" />
<glyph unicode="&#x153;" horiz-adv-x="696" d="M102 139v523q0 57 40 97t98 40q68 0 106 -49q43 49 109 49q57 0 97 -40t40 -97v-263q0 -12 -8.5 -21t-22.5 -9h-182v-230q0 -33 21.5 -54.5t54.5 -21.5q31 0 53 21.5t22 54.5q0 12 9.5 21.5t21.5 9.5q14 0 22.5 -9t8.5 -22q0 -57 -40 -98t-97 -41q-33 0 -60.5 14.5 t-48.5 36.5q-18 -23 -46 -37t-60 -14q-57 0 -97.5 41t-40.5 98zM164 139q0 -33 22.5 -54.5t53.5 -21.5q33 0 54 21.5t21 54.5v523q0 31 -21.5 53t-53.5 22q-31 0 -53.5 -22.5t-22.5 -52.5v-523zM379 432h151v230q0 31 -22.5 53t-52.5 22q-33 0 -54.5 -22.5t-21.5 -52.5v-230 z" />
<glyph unicode="&#x178;" horiz-adv-x="452" d="M72 1495q-2 12 6 22.5t20 12.5t22.5 -5t12.5 -22l76 -530l78 530q4 31 35 27q12 -2 20 -12.5t4 -22.5l-106 -741v-723q0 -12 -8.5 -21.5t-22.5 -9.5q-12 0 -21.5 9t-9.5 22v723zM119 1696v71q0 12 9 21.5t22 9.5q14 0 23 -9t9 -22v-71q0 -12 -9 -21.5t-23 -9.5 q-12 0 -21.5 9t-9.5 22zM238 1696v71q0 12 9 21.5t21 9.5q14 0 22.5 -9t8.5 -22v-71q0 -12 -8.5 -21.5t-22.5 -9.5q-12 0 -21 9t-9 22z" />
<glyph unicode="&#x2000;" horiz-adv-x="899" />
<glyph unicode="&#x2001;" horiz-adv-x="1799" />
<glyph unicode="&#x2002;" horiz-adv-x="899" />
<glyph unicode="&#x2003;" horiz-adv-x="1799" />
<glyph unicode="&#x2004;" horiz-adv-x="599" />
<glyph unicode="&#x2005;" horiz-adv-x="449" />
<glyph unicode="&#x2006;" horiz-adv-x="299" />
<glyph unicode="&#x2007;" horiz-adv-x="299" />
<glyph unicode="&#x2008;" horiz-adv-x="224" />
<glyph unicode="&#x2009;" horiz-adv-x="359" />
<glyph unicode="&#x200a;" horiz-adv-x="99" />
<glyph unicode="&#x2010;" horiz-adv-x="485" d="M102 522q0 12 9.5 21.5t23.5 9.5h213q14 0 23.5 -9t9.5 -22q0 -30 -33 -30h-213q-33 0 -33 30z" />
<glyph unicode="&#x2011;" horiz-adv-x="485" d="M102 522q0 12 9.5 21.5t23.5 9.5h213q14 0 23.5 -9t9.5 -22q0 -30 -33 -30h-213q-33 0 -33 30z" />
<glyph unicode="&#x2012;" horiz-adv-x="485" d="M102 522q0 12 9.5 21.5t23.5 9.5h213q14 0 23.5 -9t9.5 -22q0 -30 -33 -30h-213q-33 0 -33 30z" />
<glyph unicode="&#x2013;" horiz-adv-x="1705" />
<glyph unicode="&#x2014;" horiz-adv-x="696" d="M102 768q0 12 9.5 21.5t23.5 9.5h428q12 0 21.5 -9.5t9.5 -21.5q0 -14 -9.5 -22.5t-21.5 -8.5h-428q-33 0 -33 31z" />
<glyph unicode="&#x2018;" horiz-adv-x="266" d="M102 1421v84q0 12 8.5 21.5t22.5 9.5q12 0 21.5 -9t9.5 -22v-84q0 -14 -9.5 -23t-21.5 -9q-31 0 -31 32z" />
<glyph unicode="&#x2019;" horiz-adv-x="266" d="M102 1421v84q0 12 8.5 21.5t22.5 9.5q12 0 21.5 -9t9.5 -22v-84q0 -14 -9.5 -23t-21.5 -9q-31 0 -31 32z" />
<glyph unicode="&#x201c;" horiz-adv-x="368" d="M102 1421v84q0 12 8.5 21.5t22.5 9.5q12 0 21.5 -9t9.5 -22v-84q0 -14 -9.5 -23t-21.5 -9q-31 0 -31 32zM209 1421v84q0 12 9.5 21.5t21.5 9.5q14 0 22 -9t8 -22v-84q0 -33 -30 -32q-12 0 -21.5 9t-9.5 23z" />
<glyph unicode="&#x201d;" horiz-adv-x="376" d="M102 1421v84q0 12 8.5 21.5t22.5 9.5q12 0 21.5 -9t9.5 -22v-84q0 -14 -9.5 -23t-21.5 -9q-31 0 -31 32zM209 1421v84q0 12 9.5 21.5t21.5 9.5q14 0 22 -9t8 -22v-84q0 -33 -30 -32q-12 0 -21.5 9t-9.5 23z" />
<glyph unicode="&#x2022;" horiz-adv-x="378" d="M102 768q0 35 25 59.5t59 24.5q35 0 60.5 -24.5t25.5 -59.5t-25.5 -60.5t-60.5 -25.5t-59.5 25.5t-24.5 60.5zM164 768q0 -25 22 -25q23 0 23 25q0 23 -23 23t-22 -23z" />
<glyph unicode="&#x2026;" horiz-adv-x="829" d="M102 31v106q0 12 9.5 21.5t21.5 9.5q14 0 23.5 -9t9.5 -22v-106q0 -12 -9.5 -21.5t-23.5 -9.5q-12 0 -21.5 9t-9.5 22zM379 31v106q0 12 9 21.5t22 9.5q14 0 23 -9t9 -22v-106q0 -12 -9 -21.5t-23 -9.5q-12 0 -21.5 9t-9.5 22zM655 31v106q0 12 9.5 21.5t21.5 9.5 q14 0 23.5 -9t9.5 -22v-106q0 -12 -9.5 -21.5t-23.5 -9.5q-12 0 -21.5 9t-9.5 22z" />
<glyph unicode="&#x202f;" horiz-adv-x="359" />
<glyph unicode="&#x205f;" horiz-adv-x="449" />
<glyph unicode="&#x20ac;" horiz-adv-x="573" d="M78 692q0 12 9 21.5t22 9.5h75v151h-75q-12 0 -21.5 8.5t-9.5 22.5q0 12 9 21.5t22 9.5h75v461q0 57 41 98t99 41q57 0 98 -41t41 -98q0 -12 -9.5 -21.5t-23.5 -9.5q-12 0 -21.5 9t-9.5 22q0 33 -21.5 54.5t-53.5 21.5q-31 0 -53.5 -21.5t-22.5 -54.5v-461h182 q14 0 23.5 -9t9.5 -22q0 -31 -33 -31h-182v-151h182q14 0 23.5 -9t9.5 -22q0 -31 -33 -30h-182v-525q0 -31 22.5 -53.5t53.5 -22.5q33 0 54 22.5t21 53.5q0 14 9.5 22.5t21.5 8.5q33 0 33 -31q0 -57 -41 -97t-98 -40t-98.5 40t-41.5 97v525h-75q-12 0 -21.5 8t-9.5 22z" />
<glyph unicode="&#xe000;" horiz-adv-x="798" d="M0 0v799h799v-799h-799z" />
<glyph unicode="&#xfb01;" d="M102 137v1260q0 57 40 98t100 41q57 0 97 -41t40 -98q0 -12 -9.5 -21.5t-21.5 -9.5t-21.5 9t-9.5 22q0 31 -22.5 53.5t-52.5 22.5q-33 0 -55.5 -23t-22.5 -53v-598h184q12 0 21.5 -9.5t9.5 -21.5v-737q0 -14 -9.5 -22.5t-21.5 -8.5t-21.5 8t-9.5 23v704h-153v-598 q0 -31 22.5 -53.5t55.5 -22.5q12 0 21 -9t9 -21q0 -14 -9 -22.5t-21 -8.5q-59 0 -99.5 40t-40.5 97z" />
<glyph unicode="&#xfb02;" horiz-adv-x="573" d="M102 139v1258q0 59 41 99t99 40h114q12 0 21.5 -9t9.5 -22v-1366q0 -33 22.5 -55.5t53.5 -22.5q33 0 33 -30q0 -12 -9.5 -21.5t-23.5 -9.5q-57 0 -97 40t-40 99v1336h-84q-33 0 -54.5 -22.5t-21.5 -55.5v-598h100q14 0 23.5 -9.5t9.5 -21.5t-9 -21.5t-24 -9.5h-100v-598 q0 -33 21.5 -55.5t54.5 -22.5q12 0 21 -8t9 -22q0 -12 -9 -21.5t-21 -9.5q-57 0 -98.5 40t-41.5 99z" />
</font>
</defs>
</svg>
